<svg xmlns="http://www.w3.org/2000/svg" xmlns:xlink="http://www.w3.org/1999/xlink" contentStyleType="text/css" data-diagram-type="ACTIVITY" height="1464px" preserveAspectRatio="none" style="width:1150px;height:1464px;background:#FFFFFF;" version="1.1" viewBox="0 0 1150 1464" width="1150px" zoomAndPan="magnify"><title>&#1055;&#1083;&#1072;&#1090;&#1092;&#1086;&#1088;&#1084;&#1072; Systematics &#8212; &#1044;&#1110;&#1072;&#1075;&#1088;&#1072;&#1084;&#1072; &#1076;&#1110;&#1103;&#1083;&#1100;&#1085;&#1086;&#1089;&#1090;&#1110;</title><defs/><g><g class="title" data-source-line="1"><text fill="#000000" font-family="sans-serif" font-size="14" font-weight="bold" lengthAdjust="spacing" textLength="382.4297" x="382.4033" y="32.9951">&#1055;&#1083;&#1072;&#1090;&#1092;&#1086;&#1088;&#1084;&#1072; Systematics &#8212; &#1044;&#1110;&#1072;&#1075;&#1088;&#1072;&#1084;&#1072; &#1076;&#1110;&#1103;&#1083;&#1100;&#1085;&#1086;&#1089;&#1090;&#1110;</text></g><ellipse cx="795.2668" cy="57.2969" fill="#222222" rx="10" ry="10" style="stroke:#222222;stroke-width:1;"/><rect fill="#F1F1F1" height="33.9688" rx="12.5" ry="12.5" style="stroke:#181818;stroke-width:0.5;" width="220.6191" x="684.9573" y="87.2969"/><text fill="#000000" font-family="sans-serif" font-size="12" lengthAdjust="spacing" textLength="200.6191" x="694.9573" y="108.4355">&#1057;&#1090;&#1091;&#1076;&#1077;&#1085;&#1090; &#1074;&#1074;&#1086;&#1076;&#1080;&#1090;&#1100; &#1083;&#1086;&#1075;&#1110;&#1085; &#1110; &#1087;&#1072;&#1088;&#1086;&#1083;&#1100;</text><rect fill="#F1F1F1" height="33.9688" rx="12.5" ry="12.5" style="stroke:#181818;stroke-width:0.5;" width="192.3652" x="699.0842" y="141.2656"/><text fill="#000000" font-family="sans-serif" font-size="12" lengthAdjust="spacing" textLength="172.3652" x="709.0842" y="162.4043">&#1055;&#1077;&#1088;&#1077;&#1074;&#1110;&#1088;&#1082;&#1072; &#1086;&#1073;&#1083;&#1110;&#1082;&#1086;&#1074;&#1080;&#1093; &#1076;&#1072;&#1085;&#1080;&#1093;</text><polygon fill="#F1F1F1" points="723.1787,195.2344,867.355,195.2344,879.355,207.2344,867.355,219.2344,723.1787,219.2344,711.1787,207.2344,723.1787,195.2344" style="stroke:#181818;stroke-width:0.5;"/><text fill="#000000" font-family="sans-serif" font-size="11" lengthAdjust="spacing" textLength="144.1763" x="723.1787" y="211.0425">&#1054;&#1073;&#1083;&#1110;&#1082;&#1086;&#1074;&#1110; &#1076;&#1072;&#1085;&#1110; &#1087;&#1088;&#1072;&#1074;&#1080;&#1083;&#1100;&#1085;&#1110;?</text><text fill="#000000" font-family="sans-serif" font-size="11" lengthAdjust="spacing" textLength="28.3755" x="682.8032" y="204.6401">[&#1090;&#1072;&#1082;]</text><text fill="#000000" font-family="sans-serif" font-size="11" lengthAdjust="spacing" textLength="18.8311" x="879.355" y="204.6401">[&#1085;&#1110;]</text><rect fill="#F1F1F1" height="33.9688" rx="12.5" ry="12.5" style="stroke:#181818;stroke-width:0.5;" width="275.0469" x="400.7349" y="229.2344"/><text fill="#000000" font-family="sans-serif" font-size="12" lengthAdjust="spacing" textLength="255.0469" x="410.7349" y="250.373">&#1057;&#1090;&#1091;&#1076;&#1077;&#1085;&#1090; &#1087;&#1077;&#1088;&#1077;&#1093;&#1086;&#1076;&#1080;&#1090;&#1100; &#1076;&#1086; &#1082;&#1072;&#1090;&#1072;&#1083;&#1086;&#1075;&#1091; &#1082;&#1091;&#1088;&#1089;&#1110;&#1074;</text><rect fill="#F1F1F1" height="33.9688" rx="12.5" ry="12.5" style="stroke:#181818;stroke-width:0.5;" width="203.2109" x="436.6528" y="283.2031"/><text fill="#000000" font-family="sans-serif" font-size="12" lengthAdjust="spacing" textLength="183.2109" x="446.6528" y="304.3418">&#1057;&#1090;&#1091;&#1076;&#1077;&#1085;&#1090; &#1086;&#1073;&#1080;&#1088;&#1072;&#1108; &#1082;&#1091;&#1088;&#1089; &#1090;&#1072; &#1090;&#1077;&#1089;&#1090;</text><rect fill="#F1F1F1" height="33.9688" rx="12.5" ry="12.5" style="stroke:#181818;stroke-width:0.5;" width="246.582" x="414.9673" y="337.1719"/><text fill="#000000" font-family="sans-serif" font-size="12" lengthAdjust="spacing" textLength="226.582" x="424.9673" y="358.3105">&#1057;&#1090;&#1091;&#1076;&#1077;&#1085;&#1090; &#1085;&#1072;&#1090;&#1080;&#1089;&#1082;&#1072;&#1108; "&#1056;&#1086;&#1079;&#1087;&#1086;&#1095;&#1072;&#1090;&#1080; &#1090;&#1077;&#1089;&#1090;"</text><polygon fill="#F1F1F1" points="469.2961,391.1406,607.2205,391.1406,619.2205,403.1406,607.2205,415.1406,469.2961,415.1406,457.2961,403.1406,469.2961,391.1406" style="stroke:#181818;stroke-width:0.5;"/><text fill="#000000" font-family="sans-serif" font-size="11" lengthAdjust="spacing" textLength="137.9243" x="469.2961" y="406.9487">&#1058;&#1077;&#1089;&#1090; &#1084;&#1086;&#1078;&#1085;&#1072; &#1088;&#1086;&#1079;&#1087;&#1086;&#1095;&#1072;&#1090;&#1080;?</text><text fill="#000000" font-family="sans-serif" font-size="11" lengthAdjust="spacing" textLength="28.3755" x="428.9207" y="400.5464">[&#1090;&#1072;&#1082;]</text><text fill="#000000" font-family="sans-serif" font-size="11" lengthAdjust="spacing" textLength="18.8311" x="619.2205" y="400.5464">[&#1085;&#1110;]</text><rect fill="#F1F1F1" height="33.9688" rx="12.5" ry="12.5" style="stroke:#181818;stroke-width:0.5;" width="127.707" x="242.8262" y="425.1406"/><text fill="#000000" font-family="sans-serif" font-size="12" lengthAdjust="spacing" textLength="107.707" x="252.8262" y="446.2793">&#1057;&#1090;&#1074;&#1086;&#1088;&#1080;&#1090;&#1080; &#1089;&#1087;&#1088;&#1086;&#1073;&#1091;</text><rect fill="#F1F1F1" height="33.9688" rx="12.5" ry="12.5" style="stroke:#181818;stroke-width:0.5;" width="159.002" x="227.1787" y="493.0781"/><text fill="#000000" font-family="sans-serif" font-size="12" lengthAdjust="spacing" textLength="139.002" x="237.1787" y="514.2168">&#1057;&#1080;&#1089;&#1090;&#1077;&#1084;&#1072; &#1087;&#1086;&#1082;&#1072;&#1079;&#1091;&#1108; &#1090;&#1077;&#1089;&#1090;</text><rect fill="#F1F1F1" height="33.9688" rx="12.5" ry="12.5" style="stroke:#181818;stroke-width:0.5;" width="219.0605" x="197.1494" y="593.0469"/><text fill="#000000" font-family="sans-serif" font-size="12" lengthAdjust="spacing" textLength="199.0605" x="207.1494" y="614.1855">&#1057;&#1090;&#1091;&#1076;&#1077;&#1085;&#1090; &#1074;&#1110;&#1076;&#1087;&#1086;&#1074;&#1110;&#1076;&#1072;&#1108; &#1085;&#1072; &#1087;&#1080;&#1090;&#1072;&#1085;&#1085;&#1103;</text><rect fill="#F1F1F1" height="33.9688" rx="12.5" ry="12.5" style="stroke:#181818;stroke-width:0.5;" width="154.1973" x="229.5811" y="654.5156"/><text fill="#000000" font-family="sans-serif" font-size="12" lengthAdjust="spacing" textLength="134.1973" x="239.5811" y="675.6543">&#1042;&#1110;&#1076;&#1087;&#1086;&#1074;&#1110;&#1076;&#1100; &#1079;&#1073;&#1077;&#1088;&#1077;&#1078;&#1077;&#1085;&#1072;</text><polygon fill="#F1F1F1" points="306.6797,549.0469,318.6797,561.0469,306.6797,573.0469,294.6797,561.0469,306.6797,549.0469" style="stroke:#181818;stroke-width:0.5;"/><polygon fill="#F1F1F1" points="252.2517,708.4844,361.1077,708.4844,373.1077,720.4844,361.1077,732.4844,252.2517,732.4844,240.2517,720.4844,252.2517,708.4844" style="stroke:#181818;stroke-width:0.5;"/><text fill="#000000" font-family="sans-serif" font-size="11" lengthAdjust="spacing" textLength="108.856" x="252.2517" y="724.2925">&#1063;&#1072;&#1089; &#1085;&#1077; &#1074;&#1080;&#1095;&#1077;&#1088;&#1087;&#1072;&#1085;&#1086;?</text><text fill="#000000" font-family="sans-serif" font-size="11" lengthAdjust="spacing" textLength="28.3755" x="373.1077" y="717.8901">[&#1090;&#1072;&#1082;]</text><rect fill="#F1F1F1" height="33.9688" rx="12.5" ry="12.5" style="stroke:#181818;stroke-width:0.5;" width="122.4629" x="245.4482" y="773.8833"/><text fill="#000000" font-family="sans-serif" font-size="12" lengthAdjust="spacing" textLength="102.4629" x="255.4482" y="795.022">&#1047;&#1072;&#1074;&#1077;&#1088;&#1096;&#1080;&#1090;&#1080; &#1090;&#1077;&#1089;&#1090;</text><rect fill="#F1F1F1" height="33.9688" rx="12.5" ry="12.5" style="stroke:#181818;stroke-width:0.5;" width="126.2891" x="243.5352" y="827.8521"/><text fill="#000000" font-family="sans-serif" font-size="12" lengthAdjust="spacing" textLength="106.2891" x="253.5352" y="848.9907">&#1047;&#1073;&#1077;&#1088;&#1077;&#1075;&#1090;&#1080; &#1089;&#1087;&#1088;&#1086;&#1073;&#1091;</text><rect fill="#555555" height="6" rx="2.5" ry="2.5" style="stroke:#555555;stroke-width:1;" width="593.3594" x="11" y="881.8208"/><rect fill="#F1F1F1" height="33.9688" rx="12.5" ry="12.5" style="stroke:#181818;stroke-width:0.5;" width="262.4141" x="23" y="982.6919"/><text fill="#000000" font-family="sans-serif" font-size="12" lengthAdjust="spacing" textLength="242.4141" x="33" y="1003.8306">&#1040;&#1074;&#1090;&#1086;&#1084;&#1072;&#1090;&#1080;&#1095;&#1085;&#1086; &#1086;&#1094;&#1110;&#1085;&#1080;&#1090;&#1080; &#1090;&#1077;&#1089;&#1090;&#1086;&#1074;&#1110; &#1087;&#1080;&#1090;&#1072;&#1085;&#1085;&#1103;</text><rect fill="#F1F1F1" height="33.9688" rx="12.5" ry="12.5" style="stroke:#181818;stroke-width:0.5;" width="276.9453" x="313.4141" y="907.8208"/><text fill="#000000" font-family="sans-serif" font-size="12" lengthAdjust="spacing" textLength="256.9453" x="323.4141" y="928.9595">&#1055;&#1077;&#1088;&#1077;&#1074;&#1110;&#1088;&#1080;&#1090;&#1080; &#1074;&#1110;&#1076;&#1082;&#1088;&#1080;&#1090;&#1110; &#1074;&#1110;&#1076;&#1087;&#1086;&#1074;&#1110;&#1076;&#1110; &#1085;&#1072; &#1087;&#1083;&#1072;&#1075;&#1110;&#1072;&#1090;</text><rect fill="#F1F1F1" height="47.9375" rx="12.5" ry="12.5" style="stroke:#181818;stroke-width:0.5;" width="224.1406" x="339.8164" y="1010.1919"/><text fill="#000000" font-family="sans-serif" font-size="12" lengthAdjust="spacing" textLength="204.1406" x="349.8164" y="1031.3306">&#1053;&#1072;&#1076;&#1110;&#1089;&#1083;&#1072;&#1090;&#1080; &#1089;&#1090;&#1091;&#1076;&#1077;&#1085;&#1090;&#1091; &#1089;&#1087;&#1086;&#1074;&#1110;&#1097;&#1077;&#1085;&#1085;&#1103;</text><text fill="#000000" font-family="sans-serif" font-size="12" lengthAdjust="spacing" textLength="136.5586" x="349.8164" y="1045.2993">&#1087;&#1088;&#1086; &#1087;&#1083;&#1072;&#1075;&#1110;&#1072;&#1090; &#1085;&#1072; &#1087;&#1086;&#1096;&#1090;&#1091;</text><polygon fill="#F1F1F1" points="397.9878,961.7896,505.7856,961.7896,517.7856,973.7896,505.7856,985.7896,397.9878,985.7896,385.9878,973.7896,397.9878,961.7896" style="stroke:#181818;stroke-width:0.5;"/><text fill="#000000" font-family="sans-serif" font-size="11" lengthAdjust="spacing" textLength="28.3755" x="455.8867" y="996">[&#1090;&#1072;&#1082;]</text><text fill="#000000" font-family="sans-serif" font-size="11" lengthAdjust="spacing" textLength="107.7979" x="397.9878" y="977.5977">&#1042;&#1080;&#1103;&#1074;&#1083;&#1077;&#1085;&#1086; &#1087;&#1083;&#1072;&#1075;&#1110;&#1072;&#1090;?</text><text fill="#000000" font-family="sans-serif" font-size="11" lengthAdjust="spacing" textLength="18.8311" x="517.7856" y="971.1953">[&#1085;&#1110;]</text><polygon fill="#F1F1F1" points="451.8867,1078.1294,463.8867,1090.1294,451.8867,1102.1294,439.8867,1090.1294,451.8867,1078.1294" style="stroke:#181818;stroke-width:0.5;"/><rect fill="#555555" height="6" rx="2.5" ry="2.5" style="stroke:#555555;stroke-width:1;" width="593.3594" x="11" y="1122.1294"/><rect fill="#F1F1F1" height="33.9688" rx="12.5" ry="12.5" style="stroke:#181818;stroke-width:0.5;" width="206.498" x="203.4307" y="1148.1294"/><text fill="#000000" font-family="sans-serif" font-size="12" lengthAdjust="spacing" textLength="186.498" x="213.4307" y="1169.2681">&#1056;&#1086;&#1079;&#1088;&#1072;&#1093;&#1091;&#1074;&#1072;&#1090;&#1080; &#1092;&#1110;&#1085;&#1072;&#1083;&#1100;&#1085;&#1091; &#1086;&#1094;&#1110;&#1085;&#1082;&#1091;</text><rect fill="#F1F1F1" height="33.9688" rx="12.5" ry="12.5" style="stroke:#181818;stroke-width:0.5;" width="123.4238" x="244.9678" y="1202.0981"/><text fill="#000000" font-family="sans-serif" font-size="12" lengthAdjust="spacing" textLength="103.4238" x="254.9678" y="1223.2368">&#1047;&#1073;&#1077;&#1088;&#1077;&#1075;&#1090;&#1080; &#1086;&#1094;&#1110;&#1085;&#1082;&#1091;</text><rect fill="#F1F1F1" height="33.9688" rx="12.5" ry="12.5" style="stroke:#181818;stroke-width:0.5;" width="223.8535" x="194.7529" y="1256.0669"/><text fill="#000000" font-family="sans-serif" font-size="12" lengthAdjust="spacing" textLength="203.8535" x="204.7529" y="1277.2056">&#1054;&#1085;&#1086;&#1074;&#1080;&#1090;&#1080; &#1082;&#1072;&#1090;&#1072;&#1083;&#1086;&#1075; &#1082;&#1091;&#1088;&#1089;&#1110;&#1074; &#1110; &#1086;&#1094;&#1110;&#1085;&#1082;&#1080;</text><rect fill="#F1F1F1" height="33.9688" rx="12.5" ry="12.5" style="stroke:#181818;stroke-width:0.5;" width="273.125" x="170.1172" y="1310.0356"/><text fill="#000000" font-family="sans-serif" font-size="12" lengthAdjust="spacing" textLength="253.125" x="180.1172" y="1331.1743">&#1053;&#1072;&#1076;&#1110;&#1089;&#1083;&#1072;&#1090;&#1080; &#1088;&#1077;&#1079;&#1091;&#1083;&#1100;&#1090;&#1072;&#1090; &#1076;&#1083;&#1103; &#1074;&#1110;&#1076;&#1086;&#1073;&#1088;&#1072;&#1078;&#1077;&#1085;&#1085;&#1103;</text><rect fill="#F1F1F1" height="47.9375" rx="12.5" ry="12.5" style="stroke:#181818;stroke-width:0.5;" width="195.3125" x="209.0234" y="1364.0044"/><text fill="#000000" font-family="sans-serif" font-size="12" lengthAdjust="spacing" textLength="175.3125" x="219.0234" y="1385.1431">&#1057;&#1090;&#1091;&#1076;&#1077;&#1085;&#1090; &#1087;&#1077;&#1088;&#1077;&#1075;&#1083;&#1103;&#1076;&#1072;&#1108; &#1086;&#1094;&#1110;&#1085;&#1082;&#1091;</text><text fill="#000000" font-family="sans-serif" font-size="12" lengthAdjust="spacing" textLength="119.1387" x="219.0234" y="1399.1118">&#1110; &#1074;&#1110;&#1076;&#1089;&#1086;&#1090;&#1086;&#1082; &#1087;&#1083;&#1072;&#1075;&#1110;&#1072;&#1090;&#1091;</text><ellipse cx="306.6797" cy="1442.9419" fill="none" rx="11" ry="11" style="stroke:#222222;stroke-width:1;"/><ellipse cx="306.6797" cy="1442.9419" fill="#222222" rx="6" ry="6" style="stroke:#222222;stroke-width:1;"/><rect fill="#F1F1F1" height="47.9375" rx="12.5" ry="12.5" style="stroke:#181818;stroke-width:0.5;" width="290.9551" x="624.3594" y="425.1406"/><text fill="#000000" font-family="sans-serif" font-size="12" lengthAdjust="spacing" textLength="270.9551" x="634.3594" y="446.2793">&#1055;&#1086;&#1082;&#1072;&#1079;&#1072;&#1090;&#1080; &#1087;&#1086;&#1074;&#1110;&#1076;&#1086;&#1084;&#1083;&#1077;&#1085;&#1085;&#1103; &#1087;&#1088;&#1086; &#1085;&#1077;&#1084;&#1086;&#1078;&#1083;&#1080;&#1074;&#1110;&#1089;&#1090;&#1100;</text><text fill="#000000" font-family="sans-serif" font-size="12" lengthAdjust="spacing" textLength="97.5352" x="634.3594" y="460.248">&#1088;&#1086;&#1079;&#1087;&#1086;&#1095;&#1072;&#1090;&#1080; &#1090;&#1077;&#1089;&#1090;</text><ellipse cx="769.8369" cy="518.0469" fill="none" rx="11" ry="11" style="stroke:#222222;stroke-width:1;"/><ellipse cx="769.8369" cy="518.0469" fill="#222222" rx="6" ry="6" style="stroke:#222222;stroke-width:1;"/><rect fill="#F1F1F1" height="33.9688" rx="12.5" ry="12.5" style="stroke:#181818;stroke-width:0.5;" width="213.9219" x="925.3145" y="229.2344"/><text fill="#000000" font-family="sans-serif" font-size="12" lengthAdjust="spacing" textLength="193.9219" x="935.3145" y="250.373">&#1055;&#1086;&#1082;&#1072;&#1079;&#1072;&#1090;&#1080; &#1087;&#1086;&#1084;&#1080;&#1083;&#1082;&#1091; &#1072;&#1074;&#1090;&#1086;&#1088;&#1080;&#1079;&#1072;&#1094;&#1110;&#1111;</text><ellipse cx="1032.2754" cy="294.2031" fill="none" rx="11" ry="11" style="stroke:#222222;stroke-width:1;"/><ellipse cx="1032.2754" cy="294.2031" fill="#222222" rx="6" ry="6" style="stroke:#222222;stroke-width:1;"/><line style="stroke:#181818;stroke-width:1;" x1="795.2668" x2="795.2668" y1="67.2969" y2="87.2969"/><polygon fill="#181818" points="791.2668,77.2969,795.2668,87.2969,799.2668,77.2969,795.2668,81.2969" style="stroke:#181818;stroke-width:1;"/><line style="stroke:#181818;stroke-width:1;" x1="795.2668" x2="795.2668" y1="121.2656" y2="141.2656"/><polygon fill="#181818" points="791.2668,131.2656,795.2668,141.2656,799.2668,131.2656,795.2668,135.2656" style="stroke:#181818;stroke-width:1;"/><line style="stroke:#181818;stroke-width:1;" x1="538.2583" x2="538.2583" y1="263.2031" y2="283.2031"/><polygon fill="#181818" points="534.2583,273.2031,538.2583,283.2031,542.2583,273.2031,538.2583,277.2031" style="stroke:#181818;stroke-width:1;"/><line style="stroke:#181818;stroke-width:1;" x1="538.2583" x2="538.2583" y1="317.1719" y2="337.1719"/><polygon fill="#181818" points="534.2583,327.1719,538.2583,337.1719,542.2583,327.1719,538.2583,331.1719" style="stroke:#181818;stroke-width:1;"/><line style="stroke:#181818;stroke-width:1;" x1="306.6797" x2="306.6797" y1="459.1094" y2="493.0781"/><polygon fill="#181818" points="302.6797,483.0781,306.6797,493.0781,310.6797,483.0781,306.6797,487.0781" style="stroke:#181818;stroke-width:1;"/><line style="stroke:#181818;stroke-width:1;" x1="306.6797" x2="306.6797" y1="627.0156" y2="654.5156"/><polygon fill="#181818" points="302.6797,644.5156,306.6797,654.5156,310.6797,644.5156,306.6797,648.5156" style="stroke:#181818;stroke-width:1;"/><line style="stroke:#181818;stroke-width:1;" x1="306.6797" x2="306.6797" y1="573.0469" y2="593.0469"/><polygon fill="#181818" points="302.6797,583.0469,306.6797,593.0469,310.6797,583.0469,306.6797,587.0469" style="stroke:#181818;stroke-width:1;"/><line style="stroke:#181818;stroke-width:1;" x1="373.1077" x2="428.21" y1="720.4844" y2="720.4844"/><polygon fill="#181818" points="424.21,647.0156,428.21,637.0156,432.21,647.0156,428.21,643.0156" style="stroke:#181818;stroke-width:1;"/><line style="stroke:#181818;stroke-width:1;" x1="428.21" x2="428.21" y1="561.0469" y2="720.4844"/><line style="stroke:#181818;stroke-width:1;" x1="428.21" x2="318.6797" y1="561.0469" y2="561.0469"/><polygon fill="#181818" points="328.6797,557.0469,318.6797,561.0469,328.6797,565.0469,324.6797,561.0469" style="stroke:#181818;stroke-width:1;"/><line style="stroke:#181818;stroke-width:1;" x1="306.6797" x2="306.6797" y1="688.4844" y2="708.4844"/><polygon fill="#181818" points="302.6797,698.4844,306.6797,708.4844,310.6797,698.4844,306.6797,702.4844" style="stroke:#181818;stroke-width:1;"/><line style="stroke:#181818;stroke-width:1;" x1="306.6797" x2="306.6797" y1="527.0469" y2="549.0469"/><polygon fill="#181818" points="302.6797,539.0469,306.6797,549.0469,310.6797,539.0469,306.6797,543.0469" style="stroke:#181818;stroke-width:1;"/><line style="stroke:#181818;stroke-width:1;" x1="306.6797" x2="306.6797" y1="732.4844" y2="773.8833"/><polygon fill="#181818" points="302.6797,763.8833,306.6797,773.8833,310.6797,763.8833,306.6797,767.8833" style="stroke:#181818;stroke-width:1;"/><text fill="#000000" font-family="sans-serif" font-size="11" lengthAdjust="spacing" textLength="110.3438" x="310.6797" y="753.7891">[&#1085;&#1110;, &#1095;&#1072;&#1089; &#1074;&#1080;&#1095;&#1077;&#1088;&#1087;&#1072;&#1085;&#1086;]</text><line style="stroke:#181818;stroke-width:1;" x1="306.6797" x2="306.6797" y1="807.8521" y2="827.8521"/><polygon fill="#181818" points="302.6797,817.8521,306.6797,827.8521,310.6797,817.8521,306.6797,821.8521" style="stroke:#181818;stroke-width:1;"/><line style="stroke:#181818;stroke-width:1;" x1="451.8867" x2="451.8867" y1="985.7896" y2="1010.1919"/><polygon fill="#181818" points="447.8867,1000.1919,451.8867,1010.1919,455.8867,1000.1919,451.8867,1004.1919" style="stroke:#181818;stroke-width:1;"/><line style="stroke:#181818;stroke-width:1;" x1="517.7856" x2="573.957" y1="973.7896" y2="973.7896"/><polygon fill="#181818" points="569.957,1024.1606,573.957,1034.1606,577.957,1024.1606,573.957,1028.1606" style="stroke:#181818;stroke-width:1;"/><line style="stroke:#181818;stroke-width:1;" x1="573.957" x2="573.957" y1="973.7896" y2="1090.1294"/><line style="stroke:#181818;stroke-width:1;" x1="573.957" x2="463.8867" y1="1090.1294" y2="1090.1294"/><polygon fill="#181818" points="473.8867,1086.1294,463.8867,1090.1294,473.8867,1094.1294,469.8867,1090.1294" style="stroke:#181818;stroke-width:1;"/><line style="stroke:#181818;stroke-width:1;" x1="451.8867" x2="451.8867" y1="1058.1294" y2="1078.1294"/><polygon fill="#181818" points="447.8867,1068.1294,451.8867,1078.1294,455.8867,1068.1294,451.8867,1072.1294" style="stroke:#181818;stroke-width:1;"/><line style="stroke:#181818;stroke-width:1;" x1="451.8867" x2="451.8867" y1="941.7896" y2="961.7896"/><polygon fill="#181818" points="447.8867,951.7896,451.8867,961.7896,455.8867,951.7896,451.8867,955.7896" style="stroke:#181818;stroke-width:1;"/><line style="stroke:#181818;stroke-width:1;" x1="154.207" x2="154.207" y1="887.8208" y2="982.6919"/><polygon fill="#181818" points="150.207,972.6919,154.207,982.6919,158.207,972.6919,154.207,976.6919" style="stroke:#181818;stroke-width:1;"/><line style="stroke:#181818;stroke-width:1;" x1="451.8867" x2="451.8867" y1="887.8208" y2="907.8208"/><polygon fill="#181818" points="447.8867,897.8208,451.8867,907.8208,455.8867,897.8208,451.8867,901.8208" style="stroke:#181818;stroke-width:1;"/><line style="stroke:#181818;stroke-width:1;" x1="154.207" x2="154.207" y1="1016.6606" y2="1122.1294"/><polygon fill="#181818" points="150.207,1112.1294,154.207,1122.1294,158.207,1112.1294,154.207,1116.1294" style="stroke:#181818;stroke-width:1;"/><line style="stroke:#181818;stroke-width:1;" x1="451.8867" x2="451.8867" y1="1102.1294" y2="1122.1294"/><polygon fill="#181818" points="447.8867,1112.1294,451.8867,1122.1294,455.8867,1112.1294,451.8867,1116.1294" style="stroke:#181818;stroke-width:1;"/><line style="stroke:#181818;stroke-width:1;" x1="306.6797" x2="306.6797" y1="861.8208" y2="881.8208"/><polygon fill="#181818" points="302.6797,871.8208,306.6797,881.8208,310.6797,871.8208,306.6797,875.8208" style="stroke:#181818;stroke-width:1;"/><line style="stroke:#181818;stroke-width:1;" x1="306.6797" x2="306.6797" y1="1128.1294" y2="1148.1294"/><polygon fill="#181818" points="302.6797,1138.1294,306.6797,1148.1294,310.6797,1138.1294,306.6797,1142.1294" style="stroke:#181818;stroke-width:1;"/><line style="stroke:#181818;stroke-width:1;" x1="306.6797" x2="306.6797" y1="1182.0981" y2="1202.0981"/><polygon fill="#181818" points="302.6797,1192.0981,306.6797,1202.0981,310.6797,1192.0981,306.6797,1196.0981" style="stroke:#181818;stroke-width:1;"/><line style="stroke:#181818;stroke-width:1;" x1="306.6797" x2="306.6797" y1="1236.0669" y2="1256.0669"/><polygon fill="#181818" points="302.6797,1246.0669,306.6797,1256.0669,310.6797,1246.0669,306.6797,1250.0669" style="stroke:#181818;stroke-width:1;"/><line style="stroke:#181818;stroke-width:1;" x1="306.6797" x2="306.6797" y1="1290.0356" y2="1310.0356"/><polygon fill="#181818" points="302.6797,1300.0356,306.6797,1310.0356,310.6797,1300.0356,306.6797,1304.0356" style="stroke:#181818;stroke-width:1;"/><line style="stroke:#181818;stroke-width:1;" x1="306.6797" x2="306.6797" y1="1344.0044" y2="1364.0044"/><polygon fill="#181818" points="302.6797,1354.0044,306.6797,1364.0044,310.6797,1354.0044,306.6797,1358.0044" style="stroke:#181818;stroke-width:1;"/><line style="stroke:#181818;stroke-width:1;" x1="306.6797" x2="306.6797" y1="1411.9419" y2="1431.9419"/><polygon fill="#181818" points="302.6797,1421.9419,306.6797,1431.9419,310.6797,1421.9419,306.6797,1425.9419" style="stroke:#181818;stroke-width:1;"/><line style="stroke:#181818;stroke-width:1;" x1="769.8369" x2="769.8369" y1="473.0781" y2="507.0469"/><polygon fill="#181818" points="765.8369,497.0469,769.8369,507.0469,773.8369,497.0469,769.8369,501.0469" style="stroke:#181818;stroke-width:1;"/><line style="stroke:#181818;stroke-width:1;" x1="457.2961" x2="306.6797" y1="403.1406" y2="403.1406"/><line style="stroke:#181818;stroke-width:1;" x1="306.6797" x2="306.6797" y1="403.1406" y2="425.1406"/><polygon fill="#181818" points="302.6797,415.1406,306.6797,425.1406,310.6797,415.1406,306.6797,419.1406" style="stroke:#181818;stroke-width:1;"/><line style="stroke:#181818;stroke-width:1;" x1="619.2205" x2="769.8369" y1="403.1406" y2="403.1406"/><line style="stroke:#181818;stroke-width:1;" x1="769.8369" x2="769.8369" y1="403.1406" y2="425.1406"/><polygon fill="#181818" points="765.8369,415.1406,769.8369,425.1406,773.8369,415.1406,769.8369,419.1406" style="stroke:#181818;stroke-width:1;"/><line style="stroke:#181818;stroke-width:1;" x1="538.2583" x2="538.2583" y1="371.1406" y2="391.1406"/><polygon fill="#181818" points="534.2583,381.1406,538.2583,391.1406,542.2583,381.1406,538.2583,385.1406" style="stroke:#181818;stroke-width:1;"/><line style="stroke:#181818;stroke-width:1;" x1="1032.2754" x2="1032.2754" y1="263.2031" y2="283.2031"/><polygon fill="#181818" points="1028.2754,273.2031,1032.2754,283.2031,1036.2754,273.2031,1032.2754,277.2031" style="stroke:#181818;stroke-width:1;"/><line style="stroke:#181818;stroke-width:1;" x1="711.1787" x2="538.2583" y1="207.2344" y2="207.2344"/><line style="stroke:#181818;stroke-width:1;" x1="538.2583" x2="538.2583" y1="207.2344" y2="229.2344"/><polygon fill="#181818" points="534.2583,219.2344,538.2583,229.2344,542.2583,219.2344,538.2583,223.2344" style="stroke:#181818;stroke-width:1;"/><line style="stroke:#181818;stroke-width:1;" x1="879.355" x2="1032.2754" y1="207.2344" y2="207.2344"/><line style="stroke:#181818;stroke-width:1;" x1="1032.2754" x2="1032.2754" y1="207.2344" y2="229.2344"/><polygon fill="#181818" points="1028.2754,219.2344,1032.2754,229.2344,1036.2754,219.2344,1032.2754,223.2344" style="stroke:#181818;stroke-width:1;"/><line style="stroke:#181818;stroke-width:1;" x1="795.2668" x2="795.2668" y1="175.2344" y2="195.2344"/><polygon fill="#181818" points="791.2668,185.2344,795.2668,195.2344,799.2668,185.2344,795.2668,189.2344" style="stroke:#181818;stroke-width:1;"/><!--SRC=[VLN1Jjj04BtdAqPS2bBx0qHgFw97u12rfbYb0H5BgBU4GA4IKYeKcLEXxQNND2HW9TZvXTbVw9VqpQpNh8tT8A6ilVFcpPitaoYCzWFYMrxon9oOKyvCdnzvGcy_zwBWKoSAt_NeRtzCF3OnJ_WEhoTwWMScDYDUcajE4JL0TDpgHPsZgDNQv9yu3dd6SqxD2V4KVncE2HvV4f9bG8ev9HCJhv2wZoU0QaliBSzndlCK2Vgya5mP_y7h68SCI8avGthmIEKhOi9TMkSR_uxWwWrDeAGHPzcQ-Cq6HNj1bzQtp0dUB7OsMeJFCzehoyIS-UHdd96mqb1RoH0FpD3qeKBCqtOzcDIG21CpBgwJWCY_kGZO49XghiGCDEkOrlW7m1x0BZFdzbq1iMOnL91VzX6XNHdV2mofpgN81YaA8j8uH2Ksoq2rH2LcsFRl2JkXO9q1UA7A3oXox5LNH1m5Xq4dAewrLQE5EAniCwMN8bjguHFbckBYg5r1kIg7ISCU8BnrrBs0ywHT8KB7Uo6cO9r_8yj0iin9RNQkSIlDbK6fi5UdqwlNj2MkUaagwg0cTkSffIVRjReIryo54xZa17VBqR-hQK9nyOLCiMihz7Tp9HwTvsEgWwF1veicWbiBWDs3euyLCRz1H05xp1ruBhMGHClmLZYxiMjeZy1JvqCdx5QIbCVTOkOzNzW7WbgnWppApR3KjHGBnR8Pt4U7uGf08wYzL0jabS3_J84b-HrFPU4DxABKDlX-nGgGlbXwvgicGVdRNIjt9Lt1FJCN4blc7UptO4QrbCSZwBuFT_rJkM6RTYdeVZa3hwcZUQgjckIhR_ZKlKLvXgisQxft8_Afm_LMQH6Mrg3kzWA44n-aHax9Z8KXF0LGH9hXC7Aj5x-Bc- -TjkrMu-vOkKe4mEqEhvxjRc4fKCYU1iRhaLzrBpeuB0zmVO_4pFdgoylo5fYCqTAH9-UBL9UcxESbVf_4FEAhIp3iDoxv6cBM7SzPDJ1wbDz2KO9a1KdzCcbw1oAPQvj1qHNv7m00]--></g></svg>