<svg xmlns="http://www.w3.org/2000/svg" xmlns:xlink="http://www.w3.org/1999/xlink" contentStyleType="text/css" data-diagram-type="DESCRIPTION" height="791px" preserveAspectRatio="none" style="width:1106px;height:791px;background:#FFFFFF;" version="1.1" viewBox="0 0 1106 791" width="1106px" zoomAndPan="magnify"><title>&#1055;&#1083;&#1072;&#1090;&#1092;&#1086;&#1088;&#1084;&#1072; Systematics &#8212; &#1044;&#1110;&#1072;&#1075;&#1088;&#1072;&#1084;&#1072; &#1082;&#1086;&#1084;&#1087;&#1086;&#1085;&#1077;&#1085;&#1090;&#1110;&#1074;</title><defs/><g><g class="title" data-source-line="1"><text fill="#000000" font-family="sans-serif" font-size="14" font-weight="bold" lengthAdjust="spacing" textLength="398.1934" x="347.0222" y="22.9951">&#1055;&#1083;&#1072;&#1090;&#1092;&#1086;&#1088;&#1084;&#1072; Systematics &#8212; &#1044;&#1110;&#1072;&#1075;&#1088;&#1072;&#1084;&#1072; &#1082;&#1086;&#1084;&#1087;&#1086;&#1085;&#1077;&#1085;&#1090;&#1110;&#1074;</text></g><!--cluster PLATFORM--><g class="cluster" data-entity="PLATFORM" data-source-line="14" data-uid="ent0005" id="cluster_PLATFORM"><rect fill="none" height="732.89" rx="2.5" ry="2.5" style="stroke:#181818;stroke-width:1;" width="832" x="7" y="44.2969"/><text fill="#000000" font-family="sans-serif" font-size="14" font-weight="bold" lengthAdjust="spacing" textLength="194.7148" x="325.6426" y="59.292">&#1055;&#1083;&#1072;&#1090;&#1092;&#1086;&#1088;&#1084;&#1072; Systematics</text></g><!--cluster EXT--><g class="cluster" data-entity="EXT" data-source-line="51" data-uid="ent0030" id="cluster_EXT"><path d="M901.6834,689.6098 C905.2207,683.5192 910.1706,683.9745 913.9461,689.3551 C917.3114,683.2681 924.2433,682.5274 927.9467,688.9774 C930.5629,682.4204 936.5756,681.2326 940.5209,687.6937 C944.1033,680.3267 949.0811,681.0023 953.739,686.597 C958.3654,679.5374 964.4033,680.7713 968.5029,687.1747 C972.5043,681.211 976.5076,680.6308 980.7638,686.9197 C983.2831,680.0101 989.4074,679.778 993.2757,685.5932 C997.6191,679.177 1004.8077,678.9687 1008.549,686.2639 C1012.3489,680.9364 1018.2785,679.8866 1021.503,686.8694 C1024.6916,681.8564 1029.6554,681.7585 1033.1047,686.5613 C1037.9349,680.4039 1043.8101,681.2897 1046.7517,688.4907 C1050.5566,680.9318 1057.4963,681.7502 1061.4044,688.3843 C1064.8804,682.329 1070.5556,683.6189 1072.9631,689.4255 C1077.6836,682.1756 1082.2922,682.8364 1086.6872,689.7411 C1093.8833,692.6552 1093.0314,698.2884 1087.785,702.291 C1096.0677,703.9101 1096.5601,709.6931 1091.7404,715.2969 C1099.2378,718.8969 1098.4444,724.3758 1092.4305,728.6729 C1099.0113,732.6409 1098.5764,739.4979 1091.4401,742.4821 C1096.0649,748.2354 1096.503,753.8355 1088.1676,756.5805 C1093.0293,761.5804 1093.6821,766.8257 1086.2143,770.0358 C1083.6164,776.8092 1077.28,776.657 1073.0944,771.8318 C1069.5735,778.2865 1064.6891,778.6794 1060.349,772.6695 C1057.5124,778.3523 1051.5112,780.2211 1047.598,773.8039 C1043.8044,780.6181 1039.7847,780.4964 1035.2841,774.4826 C1031.8451,780.2665 1025.6194,781.679 1021.5189,775.2267 C1018.7592,781.7064 1012.6883,783.0508 1008.2293,777.0339 C1004.2152,784.1606 998.9195,784.0192 994.6442,777.29 C990.6287,783.4923 983.7681,783.5211 980.6201,776.3784 C976.6983,780.7205 970.8449,780.4176 968.817,774.2512 C964.8578,780.1032 958.8183,780.8943 954.8718,774.2371 C951.0272,781.678 945.1096,780.306 941.1613,774.3431 C936.3777,780.9128 932.5053,779.3407 928.5233,773.5251 C922.415,779.0225 918.5043,777.0757 915.2847,770.387 C911.0865,776.1769 906.0264,776.9049 902.4536,769.7662 C896.1343,768.0935 893.3061,763.0172 897.996,757.3818 C890.4946,753.0805 889.1765,748.5982 896.2633,742.5882 C890.3379,739.729 888.4703,734.6374 894.4671,730.0679 C888.2658,725.8772 889.6861,719.7614 895.4399,716.4231 C889.2383,710.0205 891.3033,704.3941 899.542,702.1382 C894.1036,697.2132 895.5128,692.5506 901.6834,689.6098" fill="none" style="stroke:#181818;stroke-width:1;"/><text fill="#000000" font-family="sans-serif" font-size="14" font-weight="bold" lengthAdjust="spacing" textLength="136.6914" x="924.6543" y="705.882">&#1047;&#1086;&#1074;&#1085;&#1110;&#1096;&#1085;&#1110; &#1089;&#1077;&#1088;&#1074;&#1110;&#1089;&#1080;</text></g><!--entity WEB--><g class="entity" data-entity="WEB" data-source-line="16" data-uid="ent0006" id="entity_WEB"><rect fill="#F1F1F1" height="46.2969" rx="2.5" ry="2.5" style="stroke:#181818;stroke-width:0.5;" width="100.3818" x="342.81" y="79.2969"/><rect fill="#F1F1F1" height="10" style="stroke:#181818;stroke-width:0.5;" width="15" x="423.1918" y="84.2969"/><rect fill="#F1F1F1" height="2" style="stroke:#181818;stroke-width:0.5;" width="4" x="421.1918" y="86.2969"/><rect fill="#F1F1F1" height="2" style="stroke:#181818;stroke-width:0.5;" width="4" x="421.1918" y="90.2969"/><text fill="#000000" font-family="sans-serif" font-size="14" lengthAdjust="spacing" textLength="60.3818" x="357.81" y="112.292">&#1042;&#1077;&#1073;&#1089;&#1072;&#1081;&#1090;</text></g><!--entity AUTH--><g class="entity" data-entity="AUTH" data-source-line="17" data-uid="ent0007" id="entity_AUTH"><rect fill="#F1F1F1" height="46.2969" rx="2.5" ry="2.5" style="stroke:#181818;stroke-width:0.5;" width="201.7725" x="436.11" y="217.9469"/><rect fill="#F1F1F1" height="10" style="stroke:#181818;stroke-width:0.5;" width="15" x="617.8825" y="222.9469"/><rect fill="#F1F1F1" height="2" style="stroke:#181818;stroke-width:0.5;" width="4" x="615.8825" y="224.9469"/><rect fill="#F1F1F1" height="2" style="stroke:#181818;stroke-width:0.5;" width="4" x="615.8825" y="228.9469"/><text fill="#000000" font-family="sans-serif" font-size="14" lengthAdjust="spacing" textLength="47.1133" x="451.11" y="250.942">&#1057;&#1077;&#1088;&#1074;&#1110;&#1089;</text><text fill="#000000" font-family="sans-serif" font-size="14" lengthAdjust="spacing" textLength="4.4502" x="498.2233" y="250.942">&#160;</text><text fill="#000000" font-family="sans-serif" font-size="14" lengthAdjust="spacing" textLength="110.209" x="502.6735" y="250.942">&#1072;&#1074;&#1090;&#1077;&#1085;&#1090;&#1080;&#1092;&#1110;&#1082;&#1072;&#1094;&#1110;&#1111;</text></g><!--entity TEST--><g class="entity" data-entity="TEST" data-source-line="18" data-uid="ent0008" id="entity_TEST"><rect fill="#F1F1F1" height="46.2969" rx="2.5" ry="2.5" style="stroke:#181818;stroke-width:0.5;" width="188.2783" x="212.86" y="217.9469"/><rect fill="#F1F1F1" height="10" style="stroke:#181818;stroke-width:0.5;" width="15" x="381.1383" y="222.9469"/><rect fill="#F1F1F1" height="2" style="stroke:#181818;stroke-width:0.5;" width="4" x="379.1383" y="224.9469"/><rect fill="#F1F1F1" height="2" style="stroke:#181818;stroke-width:0.5;" width="4" x="379.1383" y="228.9469"/><text fill="#000000" font-family="sans-serif" font-size="14" lengthAdjust="spacing" textLength="82.9678" x="227.86" y="250.942">&#1059;&#1087;&#1088;&#1072;&#1074;&#1083;&#1110;&#1085;&#1085;&#1103;</text><text fill="#000000" font-family="sans-serif" font-size="14" lengthAdjust="spacing" textLength="4.4502" x="310.8278" y="250.942">&#160;</text><text fill="#000000" font-family="sans-serif" font-size="14" lengthAdjust="spacing" textLength="60.8604" x="315.278" y="250.942">&#1090;&#1077;&#1089;&#1090;&#1072;&#1084;&#1080;</text></g><!--entity CATALOG--><g class="entity" data-entity="CATALOG" data-source-line="19" data-uid="ent0009" id="entity_CATALOG"><rect fill="#F1F1F1" height="46.2969" rx="2.5" ry="2.5" style="stroke:#181818;stroke-width:0.5;" width="150.0381" x="672.98" y="217.9469"/><rect fill="#F1F1F1" height="10" style="stroke:#181818;stroke-width:0.5;" width="15" x="803.0181" y="222.9469"/><rect fill="#F1F1F1" height="2" style="stroke:#181818;stroke-width:0.5;" width="4" x="801.0181" y="224.9469"/><rect fill="#F1F1F1" height="2" style="stroke:#181818;stroke-width:0.5;" width="4" x="801.0181" y="228.9469"/><text fill="#000000" font-family="sans-serif" font-size="14" lengthAdjust="spacing" textLength="60.1221" x="687.98" y="250.942">&#1050;&#1072;&#1090;&#1072;&#1083;&#1086;&#1075;</text><text fill="#000000" font-family="sans-serif" font-size="14" lengthAdjust="spacing" textLength="4.4502" x="748.1021" y="250.942">&#160;</text><text fill="#000000" font-family="sans-serif" font-size="14" lengthAdjust="spacing" textLength="45.4658" x="752.5523" y="250.942">&#1082;&#1091;&#1088;&#1089;&#1110;&#1074;</text></g><!--entity GRADE--><g class="entity" data-entity="GRADE" data-source-line="20" data-uid="ent0010" id="entity_GRADE"><rect fill="#F1F1F1" height="46.2969" rx="2.5" ry="2.5" style="stroke:#181818;stroke-width:0.5;" width="178.0449" x="259.98" y="371.9469"/><rect fill="#F1F1F1" height="10" style="stroke:#181818;stroke-width:0.5;" width="15" x="418.0249" y="376.9469"/><rect fill="#F1F1F1" height="2" style="stroke:#181818;stroke-width:0.5;" width="4" x="416.0249" y="378.9469"/><rect fill="#F1F1F1" height="2" style="stroke:#181818;stroke-width:0.5;" width="4" x="416.0249" y="382.9469"/><text fill="#000000" font-family="sans-serif" font-size="14" lengthAdjust="spacing" textLength="47.1133" x="274.98" y="404.942">&#1057;&#1077;&#1088;&#1074;&#1110;&#1089;</text><text fill="#000000" font-family="sans-serif" font-size="14" lengthAdjust="spacing" textLength="4.4502" x="322.0933" y="404.942">&#160;</text><text fill="#000000" font-family="sans-serif" font-size="14" lengthAdjust="spacing" textLength="86.4814" x="326.5435" y="404.942">&#1086;&#1094;&#1110;&#1085;&#1102;&#1074;&#1072;&#1085;&#1085;&#1103;</text></g><!--entity NOTIFY--><g class="entity" data-entity="NOTIFY" data-source-line="21" data-uid="ent0011" id="entity_NOTIFY"><rect fill="#F1F1F1" height="46.2969" rx="2.5" ry="2.5" style="stroke:#181818;stroke-width:0.5;" width="168.3242" x="554.84" y="714.8869"/><rect fill="#F1F1F1" height="10" style="stroke:#181818;stroke-width:0.5;" width="15" x="703.1642" y="719.8869"/><rect fill="#F1F1F1" height="2" style="stroke:#181818;stroke-width:0.5;" width="4" x="701.1642" y="721.8869"/><rect fill="#F1F1F1" height="2" style="stroke:#181818;stroke-width:0.5;" width="4" x="701.1642" y="725.8869"/><text fill="#000000" font-family="sans-serif" font-size="14" lengthAdjust="spacing" textLength="47.1133" x="569.84" y="747.882">&#1057;&#1077;&#1088;&#1074;&#1110;&#1089;</text><text fill="#000000" font-family="sans-serif" font-size="14" lengthAdjust="spacing" textLength="4.4502" x="616.9533" y="747.882">&#160;</text><text fill="#000000" font-family="sans-serif" font-size="14" lengthAdjust="spacing" textLength="76.7607" x="621.4035" y="747.882">&#1089;&#1087;&#1086;&#1074;&#1110;&#1097;&#1077;&#1085;&#1100;</text></g><!--entity PLAG--><g class="entity" data-entity="PLAG" data-source-line="22" data-uid="ent0012" id="entity_PLAG"><rect fill="#F1F1F1" height="46.2969" rx="2.5" ry="2.5" style="stroke:#181818;stroke-width:0.5;" width="246.7051" x="225.65" y="540.5969"/><rect fill="#F1F1F1" height="10" style="stroke:#181818;stroke-width:0.5;" width="15" x="452.3551" y="545.5969"/><rect fill="#F1F1F1" height="2" style="stroke:#181818;stroke-width:0.5;" width="4" x="450.3551" y="547.5969"/><rect fill="#F1F1F1" height="2" style="stroke:#181818;stroke-width:0.5;" width="4" x="450.3551" y="551.5969"/><text fill="#000000" font-family="sans-serif" font-size="14" lengthAdjust="spacing" textLength="47.1133" x="240.65" y="573.592">&#1057;&#1077;&#1088;&#1074;&#1110;&#1089;</text><text fill="#000000" font-family="sans-serif" font-size="14" lengthAdjust="spacing" textLength="4.4502" x="287.7633" y="573.592">&#160;</text><text fill="#000000" font-family="sans-serif" font-size="14" lengthAdjust="spacing" textLength="73.8486" x="292.2135" y="573.592">&#1087;&#1077;&#1088;&#1077;&#1074;&#1110;&#1088;&#1082;&#1080;</text><text fill="#000000" font-family="sans-serif" font-size="14" lengthAdjust="spacing" textLength="4.4502" x="366.0621" y="573.592">&#160;</text><text fill="#000000" font-family="sans-serif" font-size="14" lengthAdjust="spacing" textLength="17.7324" x="370.5123" y="573.592">&#1085;&#1072;</text><text fill="#000000" font-family="sans-serif" font-size="14" lengthAdjust="spacing" textLength="4.4502" x="388.2447" y="573.592">&#160;</text><text fill="#000000" font-family="sans-serif" font-size="14" lengthAdjust="spacing" textLength="54.6602" x="392.6949" y="573.592">&#1087;&#1083;&#1072;&#1075;&#1110;&#1072;&#1090;</text></g><!--entity MAIL--><g class="entity" data-entity="MAIL" data-source-line="52" data-uid="ent0031" id="entity_MAIL"><rect fill="#F1F1F1" height="46.2969" rx="2.5" ry="2.5" style="stroke:#181818;stroke-width:0.5;" width="170.4707" x="907.76" y="714.8869"/><rect fill="#F1F1F1" height="10" style="stroke:#181818;stroke-width:0.5;" width="15" x="1058.2307" y="719.8869"/><rect fill="#F1F1F1" height="2" style="stroke:#181818;stroke-width:0.5;" width="4" x="1056.2307" y="721.8869"/><rect fill="#F1F1F1" height="2" style="stroke:#181818;stroke-width:0.5;" width="4" x="1056.2307" y="725.8869"/><text fill="#000000" font-family="sans-serif" font-size="14" lengthAdjust="spacing" textLength="75.0723" x="922.76" y="747.882">&#1055;&#1086;&#1096;&#1090;&#1086;&#1074;&#1080;&#1081;</text><text fill="#000000" font-family="sans-serif" font-size="14" lengthAdjust="spacing" textLength="4.4502" x="997.8323" y="747.882">&#160;</text><text fill="#000000" font-family="sans-serif" font-size="14" lengthAdjust="spacing" textLength="50.9482" x="1002.2825" y="747.882">&#1089;&#1077;&#1088;&#1074;&#1077;&#1088;</text></g><!--entity I_REST--><g class="entity" data-entity="I_REST" data-source-line="9" data-uid="ent0002" id="entity_I_REST"><ellipse cx="864" cy="102.4469" fill="#F1F1F1" rx="8" ry="8" style="stroke:#181818;stroke-width:0.5;"/><text fill="#000000" font-family="sans-serif" font-size="14" lengthAdjust="spacing" textLength="36.0117" x="832.6948" y="132.442">REST</text><text fill="#000000" font-family="sans-serif" font-size="14" lengthAdjust="spacing" textLength="4.4502" x="868.7065" y="132.442">&#160;</text><text fill="#000000" font-family="sans-serif" font-size="14" lengthAdjust="spacing" textLength="22.1484" x="873.1567" y="132.442">API</text></g><!--entity I_SQL--><g class="entity" data-entity="I_SQL" data-source-line="10" data-uid="ent0003" id="entity_I_SQL"><ellipse cx="864" cy="563.7369" fill="#F1F1F1" rx="8" ry="8" style="stroke:#181818;stroke-width:0.5;"/><text fill="#000000" font-family="sans-serif" font-size="14" lengthAdjust="spacing" textLength="27.7061" x="850.147" y="593.732">SQL</text></g><!--entity I_SMTP--><g class="entity" data-entity="I_SMTP" data-source-line="11" data-uid="ent0004" id="entity_I_SMTP"><ellipse cx="864" cy="738.0369" fill="#F1F1F1" rx="8" ry="8" style="stroke:#181818;stroke-width:0.5;"/><text fill="#000000" font-family="sans-serif" font-size="14" lengthAdjust="spacing" textLength="37.96" x="845.02" y="768.032">SMTP</text></g><!--link WEB to I_REST--><g class="link" data-entity-1="WEB" data-entity-2="I_REST" data-source-line="25" data-uid="lnk13" id="link_WEB_I_REST"><path d="M443.6,102.4469 C580.58,102.4469 717.57,102.4469 854.56,102.4469" fill="none" id="WEB-I_REST" style="stroke:#181818;stroke-width:1;"/></g><!--link AUTH to I_SQL--><g class="link" data-entity-1="AUTH" data-entity-2="I_SQL" data-source-line="26" data-uid="lnk14" id="link_AUTH_I_SQL"><path d="M575.41,264.5669 C589.07,273.2569 604.22,283.7269 617,294.5969 C716.2,378.9669 726.41,415.1369 815,510.5969 C829.37,526.0769 846.26,543.9869 855.99,554.2769" fill="none" id="AUTH-I_SQL" style="stroke:#181818;stroke-width:1;"/></g><!--link TEST to I_SQL--><g class="link" data-entity-1="TEST" data-entity-2="I_SQL" data-source-line="27" data-uid="lnk15" id="link_TEST_I_SQL"><path d="M372.09,264.6469 C393.84,273.0569 417.9,283.3269 439,294.5969 C588.41,374.3969 601.91,434.0169 753,510.5969 C789.11,528.8969 804.08,520.1169 839,540.5969 C845.4,544.3469 851.65,549.8869 856.3,554.4869" fill="none" id="TEST-I_SQL" style="stroke:#181818;stroke-width:1;"/></g><!--link CATALOG to I_SQL--><g class="link" data-entity-1="CATALOG" data-entity-2="I_SQL" data-source-line="28" data-uid="lnk16" id="link_CATALOG_I_SQL"><path d="M756.16,264.6369 C779.52,329.2169 845.96,512.8769 860.96,554.3469" fill="none" id="CATALOG-I_SQL" style="stroke:#181818;stroke-width:1;"/></g><!--link GRADE to I_SQL--><g class="link" data-entity-1="GRADE" data-entity-2="I_SQL" data-source-line="29" data-uid="lnk17" id="link_GRADE_I_SQL"><path d="M394.02,418.6669 C412.11,427.8369 433.11,438.5969 452,448.5969 C502.64,475.3769 510.37,493.3669 565,510.5969 C681.84,547.4369 726.99,490.9769 839,540.5969 C846,543.6969 852.43,549.4869 857.01,554.3669" fill="none" id="GRADE-I_SQL" style="stroke:#181818;stroke-width:1;"/></g><!--link PLAG to I_SQL--><g class="link" data-entity-1="PLAG" data-entity-2="I_SQL" data-source-line="30" data-uid="lnk18" id="link_PLAG_I_SQL"><path d="M472.72,563.7369 C600.09,563.7369 727.46,563.7369 854.83,563.7369" fill="none" id="PLAG-I_SQL" style="stroke:#181818;stroke-width:1;"/></g><!--link NOTIFY to I_SMTP--><g class="link" data-entity-1="NOTIFY" data-entity-2="I_SMTP" data-source-line="31" data-uid="lnk19" id="link_NOTIFY_I_SMTP"><path d="M723.38,738.0369 C767.14,738.0369 810.9,738.0369 854.66,738.0369" fill="none" id="NOTIFY-I_SMTP" style="stroke:#181818;stroke-width:1;"/></g><!--link I_REST to AUTH--><g class="link" data-entity-1="I_REST" data-entity-2="AUTH" data-source-line="34" data-uid="lnk20" id="link_I_REST_AUTH"><path d="M860.74,111.7369 C853.52,128.9369 834.47,168.4369 805,187.5969 C803.16,188.7969 719.1619,205.1333 644.0019,219.5933" fill="none" id="I_REST-to-AUTH" style="stroke:#181818;stroke-width:1;"/><polygon fill="#181818" points="638.11,220.7269,647.7036,222.9545,643.02,219.7823,646.1922,215.0986,638.11,220.7269" style="stroke:#181818;stroke-width:1;"/></g><!--link WEB to AUTH--><g class="link" data-entity-1="WEB" data-entity-2="AUTH" data-source-line="37" data-uid="lnk21" id="link_WEB_AUTH"><path d="M429.64,125.9369 C442.37,134.5069 456.36,144.8169 468,155.5969 C488.43,174.5069 504.6096,194.7128 517.6996,212.6228" fill="none" id="WEB-to-AUTH" style="stroke:#181818;stroke-width:1;"/><polygon fill="#181818" points="521.24,217.4669,519.1587,207.8404,518.2896,213.4301,512.6999,212.561,521.24,217.4669" style="stroke:#181818;stroke-width:1;"/><text fill="#000000" font-family="sans-serif" font-size="13" lengthAdjust="spacing" textLength="107.4722" x="497" y="168.6638">&#1040;&#1074;&#1090;&#1077;&#1085;&#1090;&#1080;&#1092;&#1110;&#1082;&#1072;&#1094;&#1110;&#1103;</text><text fill="#000000" font-family="sans-serif" font-size="13" lengthAdjust="spacing" textLength="86.1948" x="507.6387" y="183.7966">&#1082;&#1086;&#1088;&#1080;&#1089;&#1090;&#1091;&#1074;&#1072;&#1095;&#1072;</text></g><!--link WEB to TEST--><g class="link" data-entity-1="WEB" data-entity-2="TEST" data-source-line="38" data-uid="lnk22" id="link_WEB_TEST"><path d="M378.8,126.0069 C362.86,151.3269 340.3671,187.0896 324.4171,212.4196" fill="none" id="WEB-to-TEST" style="stroke:#181818;stroke-width:1;"/><polygon fill="#181818" points="321.22,217.4969,329.4005,212.0124,323.8842,213.2658,322.6308,207.7496,321.22,217.4969" style="stroke:#181818;stroke-width:1;"/><text fill="#000000" font-family="sans-serif" font-size="13" lengthAdjust="spacing" textLength="100.6484" x="359" y="168.6638">&#1055;&#1086;&#1095;&#1072;&#1090;&#1086;&#1082;/&#1079;&#1076;&#1072;&#1095;&#1072;</text><text fill="#000000" font-family="sans-serif" font-size="13" lengthAdjust="spacing" textLength="37.9844" x="390.332" y="183.7966">&#1090;&#1077;&#1089;&#1090;&#1091;</text></g><!--link WEB to CATALOG--><g class="link" data-entity-1="WEB" data-entity-2="CATALOG" data-source-line="39" data-uid="lnk23" id="link_WEB_CATALOG"><path d="M443.38,110.5769 C488.94,118.1369 557.23,132.2769 613,155.5969 C651.78,171.8069 687.2379,195.0412 713.5979,214.1012" fill="none" id="WEB-to-CATALOG" style="stroke:#181818;stroke-width:1;"/><polygon fill="#181818" points="718.46,217.6169,713.5106,209.102,714.4082,214.6872,708.823,215.5848,718.46,217.6169" style="stroke:#181818;stroke-width:1;"/><text fill="#000000" font-family="sans-serif" font-size="13" lengthAdjust="spacing" textLength="98.2363" x="671" y="168.6638">&#1042;&#1110;&#1076;&#1086;&#1073;&#1088;&#1072;&#1078;&#1077;&#1085;&#1085;&#1103;</text><text fill="#000000" font-family="sans-serif" font-size="13" lengthAdjust="spacing" textLength="42.2183" x="699.009" y="183.7966">&#1082;&#1091;&#1088;&#1089;&#1110;&#1074;</text></g><!--link WEB to GRADE--><g class="link" data-entity-1="WEB" data-entity-2="GRADE" data-source-line="40" data-uid="lnk24" id="link_WEB_GRADE"><path d="M342.43,107.4669 C276.52,115.7369 163.6,140.9269 112,217.5969 C100.34,234.9169 101.34,246.6269 112,264.5969 C117.51,273.8769 232.5282,334.1251 299.5482,368.7151" fill="none" id="WEB-to-GRADE" style="stroke:#181818;stroke-width:1;"/><polygon fill="#181818" points="304.88,371.4669,298.7169,363.7847,300.4369,369.1737,295.0478,370.8937,304.88,371.4669" style="stroke:#181818;stroke-width:1;"/><text fill="#000000" font-family="sans-serif" font-size="13" lengthAdjust="spacing" textLength="65.9712" x="120.6204" y="230.6638">&#1055;&#1077;&#1088;&#1077;&#1075;&#1083;&#1103;&#1076;</text><text fill="#000000" font-family="sans-serif" font-size="13" lengthAdjust="spacing" textLength="81.2119" x="113" y="245.7966">&#1088;&#1077;&#1079;&#1091;&#1083;&#1100;&#1090;&#1072;&#1090;&#1110;&#1074;</text><text fill="#000000" font-family="sans-serif" font-size="13" lengthAdjust="spacing" textLength="80.3042" x="113.4539" y="260.9294">&#1086;&#1094;&#1110;&#1085;&#1102;&#1074;&#1072;&#1085;&#1085;&#1103;</text></g><!--link WEB to PLAG--><g class="link" data-entity-1="WEB" data-entity-2="PLAG" data-source-line="41" data-uid="lnk25" id="link_WEB_PLAG"><path d="M342.48,108.4669 C276.13,115.8969 164.15,131.5869 131,155.5969 C78.18,193.8369 89.04,229.5769 84,294.5969 C75.84,399.8769 100.4,444.7969 183,510.5969 C198.95,523.2969 212.4117,530.8211 231.8617,538.1111" fill="none" id="WEB-to-PLAG" style="stroke:#181818;stroke-width:1;"/><polygon fill="#181818" points="237.48,540.2169,230.4564,533.3126,232.7981,538.462,227.6486,540.8037,237.48,540.2169" style="stroke:#181818;stroke-width:1;"/><text fill="#000000" font-family="sans-serif" font-size="13" lengthAdjust="spacing" textLength="40.8218" x="98.4983" y="307.6638">&#1047;&#1072;&#1087;&#1080;&#1090;</text><text fill="#000000" font-family="sans-serif" font-size="13" lengthAdjust="spacing" textLength="4.1323" x="139.3201" y="307.6638">&#160;</text><text fill="#000000" font-family="sans-serif" font-size="13" lengthAdjust="spacing" textLength="16.4658" x="143.4524" y="307.6638">&#1085;&#1072;</text><text fill="#000000" font-family="sans-serif" font-size="13" lengthAdjust="spacing" textLength="67.8184" x="85" y="322.7966">&#1087;&#1077;&#1088;&#1077;&#1074;&#1110;&#1088;&#1082;&#1091;</text><text fill="#000000" font-family="sans-serif" font-size="13" lengthAdjust="spacing" textLength="4.1323" x="152.8184" y="322.7966">&#160;</text><text fill="#000000" font-family="sans-serif" font-size="13" lengthAdjust="spacing" textLength="16.4658" x="156.9507" y="322.7966">&#1085;&#1072;</text><text fill="#000000" font-family="sans-serif" font-size="13" lengthAdjust="spacing" textLength="50.7559" x="103.8303" y="337.9294">&#1087;&#1083;&#1072;&#1075;&#1110;&#1072;&#1090;</text></g><!--link TEST to GRADE--><g class="link" data-entity-1="TEST" data-entity-2="GRADE" data-source-line="43" data-uid="lnk26" id="link_TEST_GRADE"><path d="M313.2,264.5169 C321.14,293.2569 333.2211,337.0038 341.1811,365.7938" fill="none" id="TEST-to-GRADE" style="stroke:#181818;stroke-width:1;"/><polygon fill="#181818" points="342.78,371.5769,344.237,361.8364,341.4476,366.7577,336.5263,363.9683,342.78,371.5769" style="stroke:#181818;stroke-width:1;"/><text fill="#000000" font-family="sans-serif" font-size="13" lengthAdjust="spacing" textLength="83.4209" x="341.3003" y="307.6638">&#1053;&#1072;&#1076;&#1089;&#1080;&#1083;&#1072;&#1085;&#1085;&#1103;</text><text fill="#000000" font-family="sans-serif" font-size="13" lengthAdjust="spacing" textLength="73.4233" x="336" y="322.7966">&#1074;&#1110;&#1076;&#1087;&#1086;&#1074;&#1110;&#1076;&#1077;&#1081;</text><text fill="#000000" font-family="sans-serif" font-size="13" lengthAdjust="spacing" textLength="4.1323" x="409.4233" y="322.7966">&#160;</text><text fill="#000000" font-family="sans-serif" font-size="13" lengthAdjust="spacing" textLength="16.4658" x="413.5557" y="322.7966">&#1085;&#1072;</text><text fill="#000000" font-family="sans-serif" font-size="13" lengthAdjust="spacing" textLength="80.3042" x="342.8586" y="337.9294">&#1086;&#1094;&#1110;&#1085;&#1102;&#1074;&#1072;&#1085;&#1085;&#1103;</text></g><!--link TEST to PLAG--><g class="link" data-entity-1="TEST" data-entity-2="PLAG" data-source-line="44" data-uid="lnk27" id="link_TEST_PLAG"><path d="M267.72,264.4869 C217.82,296.0769 141.52,356.7969 171,418.5969 C197.96,475.1269 253.8573,513.7751 296.9373,537.3651" fill="none" id="TEST-to-PLAG" style="stroke:#181818;stroke-width:1;"/><polygon fill="#181818" points="302.2,540.2469,296.2272,532.4158,297.8145,537.8454,292.3849,539.4327,302.2,540.2469" style="stroke:#181818;stroke-width:1;"/><text fill="#000000" font-family="sans-serif" font-size="13" lengthAdjust="spacing" textLength="69.3672" x="172" y="384.6638">&#1055;&#1077;&#1088;&#1077;&#1074;&#1110;&#1088;&#1082;&#1072;</text><text fill="#000000" font-family="sans-serif" font-size="13" lengthAdjust="spacing" textLength="48.1978" x="172.2856" y="399.7966">&#1088;&#1086;&#1073;&#1086;&#1090;&#1080;</text><text fill="#000000" font-family="sans-serif" font-size="13" lengthAdjust="spacing" textLength="4.1323" x="220.4834" y="399.7966">&#160;</text><text fill="#000000" font-family="sans-serif" font-size="13" lengthAdjust="spacing" textLength="16.4658" x="224.6157" y="399.7966">&#1085;&#1072;</text><text fill="#000000" font-family="sans-serif" font-size="13" lengthAdjust="spacing" textLength="50.7559" x="181.3057" y="414.9294">&#1087;&#1083;&#1072;&#1075;&#1110;&#1072;&#1090;</text></g><!--link GRADE to PLAG--><g class="link" data-entity-1="GRADE" data-entity-2="PLAG" data-source-line="45" data-uid="lnk28" id="link_GRADE_PLAG"><path d="M349,418.5669 C349,450.4669 349,502.5169 349,534.3569" fill="none" id="GRADE-to-PLAG" style="stroke:#181818;stroke-width:1;"/><polygon fill="#181818" points="349,540.3569,353,531.3569,349,535.3569,345,531.3569,349,540.3569" style="stroke:#181818;stroke-width:1;"/><text fill="#000000" font-family="sans-serif" font-size="13" lengthAdjust="spacing" textLength="82.583" x="350" y="461.6638">&#1054;&#1094;&#1110;&#1085;&#1102;&#1074;&#1072;&#1085;&#1085;&#1103;</text><text fill="#000000" font-family="sans-serif" font-size="13" lengthAdjust="spacing" textLength="4.1323" x="432.583" y="461.6638">&#160;</text><text fill="#000000" font-family="sans-serif" font-size="13" lengthAdjust="spacing" textLength="6.9126" x="436.7153" y="461.6638">&#1079;</text><text fill="#000000" font-family="sans-serif" font-size="13" lengthAdjust="spacing" textLength="89.5527" x="352.0376" y="476.7966">&#1091;&#1088;&#1072;&#1093;&#1091;&#1074;&#1072;&#1085;&#1085;&#1103;&#1084;</text><text fill="#000000" font-family="sans-serif" font-size="13" lengthAdjust="spacing" textLength="68.5737" x="352.228" y="491.9294">&#1087;&#1077;&#1088;&#1077;&#1074;&#1110;&#1088;&#1082;&#1080;</text><text fill="#000000" font-family="sans-serif" font-size="13" lengthAdjust="spacing" textLength="4.1323" x="420.8018" y="491.9294">&#160;</text><text fill="#000000" font-family="sans-serif" font-size="13" lengthAdjust="spacing" textLength="16.4658" x="424.9341" y="491.9294">&#1085;&#1072;</text><text fill="#000000" font-family="sans-serif" font-size="13" lengthAdjust="spacing" textLength="50.7559" x="371.436" y="507.0622">&#1087;&#1083;&#1072;&#1075;&#1110;&#1072;&#1090;</text></g><!--link PLAG to NOTIFY--><g class="link" data-entity-1="PLAG" data-entity-2="NOTIFY" data-source-line="46" data-uid="lnk29" id="link_PLAG_NOTIFY"><path d="M386.91,587.2669 C442.49,620.2869 540.3314,678.4227 595.9214,711.4427" fill="none" id="PLAG-to-NOTIFY" style="stroke:#181818;stroke-width:1;"/><polygon fill="#181818" points="601.08,714.5069,595.3849,706.4716,596.7812,711.9534,591.2994,713.3497,601.08,714.5069" style="stroke:#181818;stroke-width:1;"/><text fill="#000000" font-family="sans-serif" font-size="13" lengthAdjust="spacing" textLength="83.4209" x="537.8254" y="629.9538">&#1053;&#1072;&#1076;&#1089;&#1080;&#1083;&#1072;&#1085;&#1085;&#1103;</text><text fill="#000000" font-family="sans-serif" font-size="13" lengthAdjust="spacing" textLength="33.4521" x="548.3911" y="645.0866">&#1079;&#1074;&#1110;&#1090;&#1091;</text><text fill="#000000" font-family="sans-serif" font-size="13" lengthAdjust="spacing" textLength="4.1323" x="581.8433" y="645.0866">&#160;</text><text fill="#000000" font-family="sans-serif" font-size="13" lengthAdjust="spacing" textLength="24.7051" x="585.9756" y="645.0866">&#1087;&#1088;&#1086;</text><text fill="#000000" font-family="sans-serif" font-size="13" lengthAdjust="spacing" textLength="135.0718" x="512" y="660.2194">&#1087;&#1083;&#1072;&#1075;&#1110;&#1072;&#1090;/&#1089;&#1087;&#1086;&#1074;&#1110;&#1097;&#1077;&#1085;&#1085;&#1103;</text></g><!--link MAIL to I_SMTP--><g class="link" data-entity-1="MAIL" data-entity-2="I_SMTP" data-source-line="56" data-uid="lnk32" id="link_MAIL_I_SMTP"><path d="M907.45,738.0369 C896.07,738.0369 884.7,738.0369 873.32,738.0369" fill="none" id="MAIL-I_SMTP" style="stroke:#181818;stroke-width:1;"/></g><!--SRC=[ZLRRJXDH57sVhzYP5oMHg8W-y61I5P0416aD-cGcPSH6MWWTWvUOz8A82H53cf8OBp76zx6qK0eClt3EB_WbhhrdfiofjR5f9ZsNlVTQQr-cNivRTabzKyVArnMzeG9TKYVAf_JBekVc7I-NBTBlKerKJTULh_PnxCi5rL41VfpXUQfQwXJMTTMmhEApN67LMNFob5t9hwuKt8ANzbuYoFFyyaZYT7tDMLt8BNfFQMJqIc8_xxoOSOj5PybDvrwvT7KaULXywYokhESAI_J4MIwwbdM1hWwHskJmggLB8D1IHxgisbQkuBbhJvoiI_RyU3f3gRafcvmYJJtcPV8uVN_Q9ld8CPR6wKncpawSOibXHn3sCu8Tw3f115E-jhNcPZsdi0JQzc1n1TFST2epCJi_GwyjYyvrW-qkGlm27n-iAX7A-0F3XV5RFGRVMGRLq7LT9bWrM1THfwqtaA0Ea6pYSE-SSUf1vcwFan_gJFBSKCUmEONz3ed0PJmv_MqxYIB3WfeUFZ5ZN3r6UUoZLdGLoIbpXTYz76wdCgdfsSb1F0B631GVWCWFyTY6Zydvr9tn0HwW81SgBzwB7jks2UBUR6Pguj4W36UoQCco11tR121-b7lqHPqPnzcSv3nUe6lzQvFWf1ovQwesBlIj8UBq2i3Xk6f9iXLlSQMIg6_kH8ecTaGVumw3DAr22Q8TgNAcC0eAFq4W06X0xGYwjXG2wrdLDT8xB8Sw8icHmPKkWcY0unPNu10yXaHeUFXcJ2MCyxjMmfVKLnYSiciysIVdJKPBXm4SGg8Qn0bK4rj7aLLNgOHN6YFryP_blqD99hhATQNVAT_m50ixnlCnu6CXtRaC6CtmVhShTDKmZJC0qrs4RSBibtJK0SEHVahsX64Rvqh2XaMoZpxSKKsInI7W7kjjRgzmvlRj3yDbd6outCE5Cz2kTClNA6jTxLVMLhVCUW1-mPqcbxJSZeWrX77KR_ZLuZIAq_uuppqdS7xhQJUVoKD5heR-lTSjynvFN_yEIkgGM7sOlGsJ7-wha__iysu3SQouSVwbnw7ugh2qF5Q37b-NUuUJo6AzuRVCzI7Ec7G3JhTaKaIZGyOIfaHsUUNv8eRLu6iocCOVPl26CMSSL_PMsCnX3qTc_3n_HyoafgP3H3U6Y8V39GBMGAIHNgY1tpQAMUWQG49Daq5EZ23yBy9Y_zt1ymS0]--></g></svg>