<svg xmlns="http://www.w3.org/2000/svg" xmlns:xlink="http://www.w3.org/1999/xlink" contentStyleType="text/css" data-diagram-type="DESCRIPTION" height="832px" preserveAspectRatio="none" style="width:1338px;height:832px;background:#FFFFFF;" version="1.1" viewBox="0 0 1338 832" width="1338px" zoomAndPan="magnify"><title>&#1055;&#1083;&#1072;&#1090;&#1092;&#1086;&#1088;&#1084;&#1072; Systematics &#8212; &#1044;&#1110;&#1072;&#1075;&#1088;&#1072;&#1084;&#1072; &#1088;&#1086;&#1079;&#1075;&#1086;&#1088;&#1090;&#1072;&#1085;&#1085;&#1103;</title><defs/><g><g class="title" data-source-line="1"><text fill="#000000" font-family="sans-serif" font-size="14" font-weight="bold" lengthAdjust="spacing" textLength="398.3506" x="462.8465" y="22.9951">&#1055;&#1083;&#1072;&#1090;&#1092;&#1086;&#1088;&#1084;&#1072; Systematics &#8212; &#1044;&#1110;&#1072;&#1075;&#1088;&#1072;&#1084;&#1072; &#1088;&#1086;&#1079;&#1075;&#1086;&#1088;&#1090;&#1072;&#1085;&#1085;&#1103;</text></g><!--cluster Client--><g class="cluster" data-entity="Client" data-source-line="11" data-uid="ent0002" id="cluster_Client"><polygon fill="none" points="592,53.2969,602,43.2969,847,43.2969,847,144.5869,837,154.5869,592,154.5869,592,53.2969" style="stroke:#181818;stroke-width:1;"/><line style="stroke:#181818;stroke-width:1;" x1="837" x2="847" y1="53.2969" y2="43.2969"/><line style="stroke:#181818;stroke-width:1;" x1="592" x2="837" y1="53.2969" y2="53.2969"/><line style="stroke:#181818;stroke-width:1;" x1="837" x2="837" y1="53.2969" y2="154.5869"/><text fill="#000000" font-family="sans-serif" font-size="14" font-weight="bold" lengthAdjust="spacing" textLength="179.3203" x="625.8398" y="69.292">&#1055;&#1088;&#1080;&#1089;&#1090;&#1088;&#1110;&#1081; &#1082;&#1086;&#1088;&#1080;&#1089;&#1090;&#1091;&#1074;&#1072;&#1095;&#1072;</text></g><!--cluster Server--><g class="cluster" data-entity="Server" data-source-line="19" data-uid="ent0005" id="cluster_Server"><polygon fill="none" points="16,312.8869,26,302.8869,854,302.8869,854,805.9269,844,815.9269,16,815.9269,16,312.8869" style="stroke:#181818;stroke-width:1;"/><line style="stroke:#181818;stroke-width:1;" x1="844" x2="854" y1="312.8869" y2="302.8869"/><line style="stroke:#181818;stroke-width:1;" x1="16" x2="844" y1="312.8869" y2="312.8869"/><line style="stroke:#181818;stroke-width:1;" x1="844" x2="844" y1="312.8869" y2="815.9269"/><text fill="#000000" font-family="sans-serif" font-size="14" font-weight="bold" lengthAdjust="spacing" textLength="158.9287" x="351.5356" y="328.882">&#1057;&#1077;&#1088;&#1074;&#1077;&#1088; Systematics</text></g><!--cluster WebServer--><g class="cluster" data-entity="WebServer" data-source-line="21" data-uid="ent0006" id="cluster_WebServer"><polygon fill="none" points="655,368.8869,665,358.8869,822,358.8869,822,460.1869,812,470.1869,655,470.1869,655,368.8869" style="stroke:#181818;stroke-width:1;"/><line style="stroke:#181818;stroke-width:1;" x1="812" x2="822" y1="368.8869" y2="358.8869"/><line style="stroke:#181818;stroke-width:1;" x1="655" x2="812" y1="368.8869" y2="368.8869"/><line style="stroke:#181818;stroke-width:1;" x1="812" x2="812" y1="368.8869" y2="470.1869"/><text fill="#000000" font-family="sans-serif" font-size="14" font-weight="bold" lengthAdjust="spacing" textLength="91.9434" x="688.5283" y="384.882">&#1042;&#1077;&#1073;-&#1089;&#1077;&#1088;&#1074;&#1077;&#1088;</text></g><!--cluster Backend--><g class="cluster" data-entity="Backend" data-source-line="25" data-uid="ent0008" id="cluster_Backend"><polygon fill="none" points="48,529.1869,58,519.1869,822,519.1869,822,773.9269,812,783.9269,48,783.9269,48,529.1869" style="stroke:#181818;stroke-width:1;"/><line style="stroke:#181818;stroke-width:1;" x1="812" x2="822" y1="529.1869" y2="519.1869"/><line style="stroke:#181818;stroke-width:1;" x1="48" x2="812" y1="529.1869" y2="529.1869"/><line style="stroke:#181818;stroke-width:1;" x1="812" x2="812" y1="529.1869" y2="783.9269"/><text fill="#000000" font-family="sans-serif" font-size="14" font-weight="bold" lengthAdjust="spacing" textLength="217.5332" x="322.2334" y="545.182">&#1057;&#1077;&#1088;&#1074;&#1077;&#1088; &#1074;&#1077;&#1073;-&#1089;&#1072;&#1081;&#1090; (Backend)</text></g><!--cluster DBServer--><g class="cluster" data-entity="DBServer" data-source-line="36" data-uid="ent0015" id="cluster_DBServer"><polygon fill="none" points="878,679.4769,888,669.4769,1108,669.4769,1108,777.0769,1098,787.0769,878,787.0769,878,679.4769" style="stroke:#181818;stroke-width:1;"/><line style="stroke:#181818;stroke-width:1;" x1="1098" x2="1108" y1="679.4769" y2="669.4769"/><line style="stroke:#181818;stroke-width:1;" x1="878" x2="1098" y1="679.4769" y2="679.4769"/><line style="stroke:#181818;stroke-width:1;" x1="1098" x2="1098" y1="679.4769" y2="787.0769"/><text fill="#000000" font-family="sans-serif" font-size="14" font-weight="bold" lengthAdjust="spacing" textLength="154.3486" x="911.8257" y="695.472">&#1057;&#1077;&#1088;&#1074;&#1077;&#1088; &#1073;&#1072;&#1079;&#1080; &#1076;&#1072;&#1085;&#1080;&#1093;</text></g><!--cluster External--><g class="cluster" data-entity="External" data-source-line="41" data-uid="ent0017" id="cluster_External"><path d="M1141.5647,694.7914 C1144.7352,689.6598 1149.7078,688.9298 1152.9152,694.753 C1156.1524,688.3237 1162.9721,687.1556 1167.28,693.554 C1170.3519,688.1133 1174.3224,686.8636 1178.4871,692.4426 C1181.8784,686.7323 1187.9858,686.3393 1191.9639,691.7303 C1196.0164,685.9797 1199.5942,685.9255 1203.8234,691.546 C1207.1853,686.1807 1211.5131,685.7177 1215.7919,690.4603 C1219.3879,684.0476 1225.4785,684.7476 1229.0548,690.4817 C1233.8311,685.1447 1238.1963,685.8188 1241.9952,691.6175 C1244.8822,685.0753 1250.2506,685.726 1254.2312,690.4273 C1259.0691,685.3733 1263.5152,684.619 1267.0806,691.7673 C1271.6323,686.4502 1276.4035,686.4104 1279.5834,693.1857 C1283.5455,687.2037 1287.2188,687.0303 1291.72,692.6202 C1295.8814,687.1843 1299.9289,687.6188 1303.7416,693.0074 C1307.8927,687.0742 1314.4719,687.2071 1316.8374,694.7434 C1323.404,696.6577 1326.0916,700.7746 1321.1935,706.8232 C1326.6979,710.0763 1328.021,714.2324 1322.2617,718.5147 C1329.3698,722.1446 1330.4444,726.4941 1325.727,732.9607 C1331.0436,738.1411 1328.0259,743.2435 1322.0811,745.019 C1326.421,749.7987 1325.3936,753.9509 1319.3895,756.2518 C1326.2517,761.0969 1323.9989,766.9368 1317.5247,769.9688 C1312.7516,775.0155 1308.6387,776.318 1304.6177,769.1727 C1301.0349,775.965 1295.8604,775.7666 1292.1211,769.3205 C1289.588,775.9081 1283.3413,776.9707 1278.9765,771.2818 C1275.2005,777.5024 1270.6395,776.6976 1266.5185,771.6639 C1262.3741,776.6699 1258.8631,776.7157 1255.286,771.066 C1251.7489,776.7166 1245.6754,776.4685 1242.195,770.9994 C1239.0915,777.6793 1234.1911,777.848 1229.5662,772.6117 C1225.4893,777.0515 1220.055,777.2861 1217.7413,770.7177 C1212.9923,777.9532 1208.5323,776.8843 1204.0643,770.4368 C1200.0988,776.3483 1194.9894,777.6975 1190.6115,770.8725 C1187.256,775.5886 1182.777,776.8037 1179.3742,770.9226 C1175.0752,778.0026 1169.1448,776.3149 1165.8749,769.8937 C1162.7594,776.3151 1157.6238,775.5117 1154.0603,770.3506 C1150.5975,776.6887 1145.5668,775.0377 1142.3129,770.1323 C1134.0434,769.1587 1132.7041,762.0581 1137.5639,756.508 C1131.8808,754.1384 1129.8548,750.0455 1134.9873,745.2093 C1129.2148,741.9163 1128.6853,737.6143 1133.4662,733.0058 C1128.0552,728.6066 1129.1952,722.5082 1136.0601,720.6957 C1130.6252,714.8932 1130.2581,709.4321 1138.9158,706.4557 C1133.6665,701.0264 1135.076,697.555 1141.5647,694.7914" fill="none" style="stroke:#181818;stroke-width:1;"/><text fill="#000000" font-family="sans-serif" font-size="14" font-weight="bold" lengthAdjust="spacing" textLength="136.6914" x="1159.6543" y="711.622">&#1047;&#1086;&#1074;&#1085;&#1110;&#1096;&#1085;&#1110; &#1089;&#1077;&#1088;&#1074;&#1110;&#1089;&#1080;</text></g><!--entity Browser--><g class="entity" data-entity="Browser" data-source-line="12" data-uid="ent0003" id="entity_Browser"><rect fill="#F1F1F1" height="39.2969" rx="6" ry="6" style="stroke:#181818;stroke-width:0.5;" width="90.2998" x="663.85" y="91.2969"/><polygon fill="#F1F1F1" points="737.1498,96.2969,737.1498,110.2969,749.1498,110.2969,749.1498,102.2969,743.1498,96.2969,737.1498,96.2969" style="stroke:#181818;stroke-width:0.5;"/><line style="stroke:#181818;stroke-width:0.5;" x1="743.1498" x2="743.1498" y1="96.2969" y2="102.2969"/><line style="stroke:#181818;stroke-width:0.5;" x1="749.1498" x2="743.1498" y1="102.2969" y2="102.2969"/><text fill="#000000" font-family="sans-serif" font-size="14" lengthAdjust="spacing" textLength="60.2998" x="673.85" y="117.292">&#1041;&#1088;&#1072;&#1091;&#1079;&#1077;&#1088;</text></g><!--entity Frontend--><g class="entity" data-entity="Frontend" data-source-line="22" data-uid="ent0007" id="entity_Frontend"><rect fill="#F1F1F1" height="39.2969" rx="6" ry="6" style="stroke:#181818;stroke-width:0.5;" width="93.1094" x="682.45" y="406.8869"/><polygon fill="#F1F1F1" points="758.5594,411.8869,758.5594,425.8869,770.5594,425.8869,770.5594,417.8869,764.5594,411.8869,758.5594,411.8869" style="stroke:#181818;stroke-width:0.5;"/><line style="stroke:#181818;stroke-width:0.5;" x1="764.5594" x2="764.5594" y1="411.8869" y2="417.8869"/><line style="stroke:#181818;stroke-width:0.5;" x1="770.5594" x2="764.5594" y1="417.8869" y2="417.8869"/><text fill="#000000" font-family="sans-serif" font-size="14" lengthAdjust="spacing" textLength="63.1094" x="692.45" y="432.882">Frontend</text></g><!--entity ???????????--><g class="entity" data-entity="..........." data-source-line="26" data-uid="ent0009" id="entity_..........."><rect fill="#F1F1F1" height="39.2969" rx="6" ry="6" style="stroke:#181818;stroke-width:0.5;" width="120.3984" x="71.8" y="567.1869"/><polygon fill="#F1F1F1" points="175.1984,572.1869,175.1984,586.1869,187.1984,586.1869,187.1984,578.1869,181.1984,572.1869,175.1984,572.1869" style="stroke:#181818;stroke-width:0.5;"/><line style="stroke:#181818;stroke-width:0.5;" x1="181.1984" x2="181.1984" y1="572.1869" y2="578.1869"/><line style="stroke:#181818;stroke-width:0.5;" x1="187.1984" x2="181.1984" y1="578.1869" y2="578.1869"/><text fill="#000000" font-family="sans-serif" font-size="14" lengthAdjust="spacing" textLength="90.3984" x="81.8" y="593.182">&#1040;&#1074;&#1090;&#1086;&#1088;&#1080;&#1079;&#1072;&#1094;&#1110;&#1103;</text></g><!--entity ?????--><g class="entity" data-entity="....." data-source-line="27" data-uid="ent0010" id="entity_....."><rect fill="#F1F1F1" height="39.2969" rx="6" ry="6" style="stroke:#181818;stroke-width:0.5;" width="73.9072" x="227.05" y="567.1869"/><polygon fill="#F1F1F1" points="283.9572,572.1869,283.9572,586.1869,295.9572,586.1869,295.9572,578.1869,289.9572,572.1869,283.9572,572.1869" style="stroke:#181818;stroke-width:0.5;"/><line style="stroke:#181818;stroke-width:0.5;" x1="289.9572" x2="289.9572" y1="572.1869" y2="578.1869"/><line style="stroke:#181818;stroke-width:0.5;" x1="295.9572" x2="289.9572" y1="578.1869" y2="578.1869"/><text fill="#000000" font-family="sans-serif" font-size="14" lengthAdjust="spacing" textLength="43.9072" x="237.05" y="593.182">&#1050;&#1091;&#1088;&#1089;&#1080;</text></g><!--entity ?????--><g class="entity" data-entity="....." data-source-line="28" data-uid="ent0011" id="entity_....."><rect fill="#F1F1F1" height="39.2969" rx="6" ry="6" style="stroke:#181818;stroke-width:0.5;" width="72.1162" x="335.94" y="567.1869"/><polygon fill="#F1F1F1" points="391.0562,572.1869,391.0562,586.1869,403.0562,586.1869,403.0562,578.1869,397.0562,572.1869,391.0562,572.1869" style="stroke:#181818;stroke-width:0.5;"/><line style="stroke:#181818;stroke-width:0.5;" x1="397.0562" x2="397.0562" y1="572.1869" y2="578.1869"/><line style="stroke:#181818;stroke-width:0.5;" x1="403.0562" x2="397.0562" y1="578.1869" y2="578.1869"/><text fill="#000000" font-family="sans-serif" font-size="14" lengthAdjust="spacing" textLength="42.1162" x="345.94" y="593.182">&#1058;&#1077;&#1089;&#1090;&#1080;</text></g><!--entity ??????????--><g class="entity" data-entity=".........." data-source-line="29" data-uid="ent0012" id="entity_.........."><rect fill="#F1F1F1" height="39.2969" rx="6" ry="6" style="stroke:#181818;stroke-width:0.5;" width="118.9355" x="71.53" y="720.6269"/><polygon fill="#F1F1F1" points="173.4655,725.6269,173.4655,739.6269,185.4655,739.6269,185.4655,731.6269,179.4655,725.6269,173.4655,725.6269" style="stroke:#181818;stroke-width:0.5;"/><line style="stroke:#181818;stroke-width:0.5;" x1="179.4655" x2="179.4655" y1="725.6269" y2="731.6269"/><line style="stroke:#181818;stroke-width:0.5;" x1="185.4655" x2="179.4655" y1="731.6269" y2="731.6269"/><text fill="#000000" font-family="sans-serif" font-size="14" lengthAdjust="spacing" textLength="88.9355" x="81.53" y="746.622">&#1054;&#1094;&#1110;&#1085;&#1102;&#1074;&#1072;&#1085;&#1085;&#1103;</text></g><!--entity ??????? ?? ????????? ?? ???????--><g class="entity" data-entity="....... .. ......... .. ......." data-source-line="30" data-uid="ent0013" id="entity_....... .. ......... .. ......."><rect fill="#F1F1F1" height="39.2969" rx="6" ry="6" style="stroke:#181818;stroke-width:0.5;" width="266.626" x="225.69" y="720.6269"/><polygon fill="#F1F1F1" points="475.316,725.6269,475.316,739.6269,487.316,739.6269,487.316,731.6269,481.316,725.6269,475.316,725.6269" style="stroke:#181818;stroke-width:0.5;"/><line style="stroke:#181818;stroke-width:0.5;" x1="481.316" x2="481.316" y1="725.6269" y2="731.6269"/><line style="stroke:#181818;stroke-width:0.5;" x1="487.316" x2="481.316" y1="731.6269" y2="731.6269"/><text fill="#000000" font-family="sans-serif" font-size="14" lengthAdjust="spacing" textLength="56.3691" x="235.69" y="746.622">&#1042;&#1110;&#1076;&#1075;&#1091;&#1082;&#1080;</text><text fill="#000000" font-family="sans-serif" font-size="14" lengthAdjust="spacing" textLength="4.4502" x="292.0591" y="746.622">&#160;</text><text fill="#000000" font-family="sans-serif" font-size="14" lengthAdjust="spacing" textLength="16.7344" x="296.5093" y="746.622">&#1090;&#1072;</text><text fill="#000000" font-family="sans-serif" font-size="14" lengthAdjust="spacing" textLength="4.4502" x="313.2437" y="746.622">&#160;</text><text fill="#000000" font-family="sans-serif" font-size="14" lengthAdjust="spacing" textLength="73.3291" x="317.6939" y="746.622">&#1087;&#1077;&#1088;&#1077;&#1074;&#1110;&#1088;&#1082;&#1072;</text><text fill="#000000" font-family="sans-serif" font-size="14" lengthAdjust="spacing" textLength="4.4502" x="391.023" y="746.622">&#160;</text><text fill="#000000" font-family="sans-serif" font-size="14" lengthAdjust="spacing" textLength="17.7324" x="395.4732" y="746.622">&#1085;&#1072;</text><text fill="#000000" font-family="sans-serif" font-size="14" lengthAdjust="spacing" textLength="4.4502" x="413.2056" y="746.622">&#160;</text><text fill="#000000" font-family="sans-serif" font-size="14" lengthAdjust="spacing" textLength="54.6602" x="417.6558" y="746.622">&#1087;&#1083;&#1072;&#1075;&#1110;&#1072;&#1090;</text></g><!--entity ?????? ????????? (SMTP ??????)--><g class="entity" data-entity="...... ......... .SMTP ......." data-source-line="31" data-uid="ent0014" id="entity_...... ......... .SMTP ......."><rect fill="#F1F1F1" height="39.2969" rx="6" ry="6" style="stroke:#181818;stroke-width:0.5;" width="262.3945" x="527.8" y="720.6269"/><polygon fill="#F1F1F1" points="773.1945,725.6269,773.1945,739.6269,785.1945,739.6269,785.1945,731.6269,779.1945,725.6269,773.1945,725.6269" style="stroke:#181818;stroke-width:0.5;"/><line style="stroke:#181818;stroke-width:0.5;" x1="779.1945" x2="779.1945" y1="725.6269" y2="731.6269"/><line style="stroke:#181818;stroke-width:0.5;" x1="785.1945" x2="779.1945" y1="731.6269" y2="731.6269"/><text fill="#000000" font-family="sans-serif" font-size="14" lengthAdjust="spacing" textLength="47.1133" x="537.8" y="746.622">&#1057;&#1077;&#1088;&#1074;&#1110;&#1089;</text><text fill="#000000" font-family="sans-serif" font-size="14" lengthAdjust="spacing" textLength="4.4502" x="584.9133" y="746.622">&#160;</text><text fill="#000000" font-family="sans-serif" font-size="14" lengthAdjust="spacing" textLength="76.7607" x="589.3635" y="746.622">&#1089;&#1087;&#1086;&#1074;&#1110;&#1097;&#1077;&#1085;&#1100;</text><text fill="#000000" font-family="sans-serif" font-size="14" lengthAdjust="spacing" textLength="4.4502" x="666.1242" y="746.622">&#160;</text><text fill="#000000" font-family="sans-serif" font-size="14" lengthAdjust="spacing" textLength="43.4219" x="670.5744" y="746.622">(SMTP</text><text fill="#000000" font-family="sans-serif" font-size="14" lengthAdjust="spacing" textLength="4.4502" x="713.9963" y="746.622">&#160;</text><text fill="#000000" font-family="sans-serif" font-size="14" lengthAdjust="spacing" textLength="51.748" x="718.4465" y="746.622">&#1082;&#1083;&#1110;&#1108;&#1085;&#1090;)</text></g><!--entity DB--><g class="entity" data-entity="DB" data-source-line="37" data-uid="ent0016" id="entity_DB"><path d="M894.32,719.4769 C894.32,709.4769 981.0021,709.4769 981.0021,709.4769 C981.0021,709.4769 1067.6843,709.4769 1067.6843,719.4769 L1067.6843,761.0706 C1067.6843,771.0706 981.0021,771.0706 981.0021,771.0706 C981.0021,771.0706 894.32,771.0706 894.32,761.0706 L894.32,719.4769" fill="#F1F1F1" style="stroke:#181818;stroke-width:0.5;"/><path d="M894.32,719.4769 C894.32,729.4769 981.0021,729.4769 981.0021,729.4769 C981.0021,729.4769 1067.6843,729.4769 1067.6843,719.4769" fill="none" style="stroke:#181818;stroke-width:0.5;"/><text fill="#000000" font-family="sans-serif" font-size="14" lengthAdjust="spacing" textLength="27.7061" x="904.32" y="746.472">SQL</text><text fill="#000000" font-family="sans-serif" font-size="14" lengthAdjust="spacing" textLength="4.4502" x="932.0261" y="746.472">&#160;</text><text fill="#000000" font-family="sans-serif" font-size="14" lengthAdjust="spacing" textLength="33.2363" x="936.4763" y="746.472">&#1073;&#1072;&#1079;&#1072;</text><text fill="#000000" font-family="sans-serif" font-size="14" lengthAdjust="spacing" textLength="4.4502" x="969.7126" y="746.472">&#160;</text><text fill="#000000" font-family="sans-serif" font-size="14" lengthAdjust="spacing" textLength="44.7959" x="974.1628" y="746.472">&#1076;&#1072;&#1085;&#1080;&#1093;</text><text fill="#000000" font-family="sans-serif" font-size="14" lengthAdjust="spacing" textLength="86.2148" x="904.32" y="762.7689">(PostgreSQL</text><text fill="#000000" font-family="sans-serif" font-size="14" lengthAdjust="spacing" textLength="4.4502" x="990.5348" y="762.7689">&#160;</text><text fill="#000000" font-family="sans-serif" font-size="14" lengthAdjust="spacing" textLength="4.7168" x="994.985" y="762.7689">/</text><text fill="#000000" font-family="sans-serif" font-size="14" lengthAdjust="spacing" textLength="4.4502" x="999.7018" y="762.7689">&#160;</text><text fill="#000000" font-family="sans-serif" font-size="14" lengthAdjust="spacing" textLength="53.5322" x="1004.152" y="762.7689">MySQL)</text></g><!--entity MailServer--><g class="entity" data-entity="MailServer" data-source-line="42" data-uid="ent0018" id="entity_MailServer"><rect fill="#F1F1F1" height="39.2969" rx="6" ry="6" style="stroke:#181818;stroke-width:0.5;" width="160.4707" x="1147.76" y="720.6269"/><polygon fill="#F1F1F1" points="1291.2307,725.6269,1291.2307,739.6269,1303.2307,739.6269,1303.2307,731.6269,1297.2307,725.6269,1291.2307,725.6269" style="stroke:#181818;stroke-width:0.5;"/><line style="stroke:#181818;stroke-width:0.5;" x1="1297.2307" x2="1297.2307" y1="725.6269" y2="731.6269"/><line style="stroke:#181818;stroke-width:0.5;" x1="1303.2307" x2="1297.2307" y1="731.6269" y2="731.6269"/><text fill="#000000" font-family="sans-serif" font-size="14" lengthAdjust="spacing" textLength="75.0723" x="1157.76" y="746.622">&#1055;&#1086;&#1096;&#1090;&#1086;&#1074;&#1080;&#1081;</text><text fill="#000000" font-family="sans-serif" font-size="14" lengthAdjust="spacing" textLength="4.4502" x="1232.8323" y="746.622">&#160;</text><text fill="#000000" font-family="sans-serif" font-size="14" lengthAdjust="spacing" textLength="50.9482" x="1237.2825" y="746.622">&#1089;&#1077;&#1088;&#1074;&#1077;&#1088;</text></g><!--entity Internet--><g class="entity" data-entity="Internet" data-source-line="16" data-uid="ent0004" id="entity_Internet"><polygon fill="#F1F1F1" points="761.57,219.5869,771.57,209.5869,866.4294,209.5869,866.4294,245.8837,856.4294,255.8837,761.57,255.8837,761.57,219.5869" style="stroke:#181818;stroke-width:0.5;"/><line style="stroke:#181818;stroke-width:0.5;" x1="856.4294" x2="866.4294" y1="219.5869" y2="209.5869"/><line style="stroke:#181818;stroke-width:0.5;" x1="761.57" x2="856.4294" y1="219.5869" y2="219.5869"/><line style="stroke:#181818;stroke-width:0.5;" x1="856.4294" x2="856.4294" y1="219.5869" y2="255.8837"/><text fill="#000000" font-family="sans-serif" font-size="14" lengthAdjust="spacing" textLength="64.8594" x="776.57" y="242.582">&#1030;&#1085;&#1090;&#1077;&#1088;&#1085;&#1077;&#1090;</text></g><!--link Client to Internet--><g class="link" data-entity-1="Client" data-entity-2="Internet" data-source-line="46" data-uid="lnk19" id="link_Client_Internet"><path d="M814,155.0289 C814,155.1885 814,155.3483 814,155.5082 C814,155.8281 814,156.1487 814,156.4699 C814,159.0395 814,161.6496 814,164.2795 C814,169.5393 814,174.878 814,180.1302 C814,190.6344 814,194.7919 814,203.2769" fill="none" id="Client-to-Internet" style="stroke:#181818;stroke-width:1;"/><polygon fill="#181818" points="814,209.2769,818,200.2769,814,204.2769,810,200.2769,814,209.2769" style="stroke:#181818;stroke-width:1;"/></g><!--link Internet to WebServer--><g class="link" data-entity-1="Internet" data-entity-2="WebServer" data-source-line="47" data-uid="lnk20" id="link_Internet_WebServer"><path d="M814,256.1169 C814,281.0169 814,316.4469 814,352.1031" fill="none" id="Internet-to-WebServer" style="stroke:#181818;stroke-width:1;"/><polygon fill="#181818" points="814,358.1031,818,349.1031,814,353.1031,810,349.1031,814,358.1031" style="stroke:#181818;stroke-width:1;"/></g><!--link WebServer to Backend--><g class="link" data-entity-1="WebServer" data-entity-2="Backend" data-source-line="48" data-uid="lnk21" id="link_WebServer_Backend"><path d="M814,470.2328 C814,470.7715 814,471.3131 814,471.8574 C814,474.0348 814,476.2561 814,478.5125 C814,487.5382 814,497.1259 814,506.7131 C814,509.1099 814,511.5067 814,513.8946 C814,515.0886 814,516.2804 814,517.4688 C814,517.7659 814,518.0628 814,518.3595 C814,518.5079 814,512.6561 814,512.8044" fill="none" id="WebServer-to-Backend" style="stroke:#181818;stroke-width:1;"/><polygon fill="#181818" points="814,518.8044,818,509.8044,814,513.8044,810,509.8044,814,518.8044" style="stroke:#181818;stroke-width:1;"/></g><!--link Backend to DB--><g class="link" data-entity-1="Backend" data-entity-2="DB" data-source-line="49" data-uid="lnk22" id="link_Backend_DB"><path d="M822.0599,595.1451 C822.1648,595.2402 822.2706,595.3361 822.3773,595.4329 C822.8042,595.82 823.2456,596.2202 823.701,596.6331 C825.5225,598.2848 827.5687,600.1403 829.8119,602.1744 C838.7844,610.3106 850.9075,621.3044 864.4075,633.5469 C891.4075,658.0319 919.4703,683.4814 943.2953,705.0864" fill="none" id="Backend-to-DB" style="stroke:#181818;stroke-width:1;"/><polygon fill="#181818" points="947.74,709.1169,943.76,700.108,944.0361,705.7581,938.386,706.0342,947.74,709.1169" style="stroke:#181818;stroke-width:1;"/></g><!--link Backend to MailServer--><g class="link" data-entity-1="Backend" data-entity-2="MailServer" data-source-line="50" data-uid="lnk23" id="link_Backend_MailServer"><path d="M822.3969,589.3952 C827.2125,590.3104 833.9613,591.6227 842.2825,593.3159 C858.925,596.7025 881.8575,601.6131 908.195,607.9194 C960.87,620.5319 1027.165,638.7269 1084,661.4769 C1124.89,677.8469 1163.9159,699.8119 1192.4059,717.0419" fill="none" id="Backend-to-MailServer" style="stroke:#181818;stroke-width:1;"/><polygon fill="#181818" points="1197.54,720.1469,1191.9088,712.0667,1193.2616,717.5594,1187.7688,718.9122,1197.54,720.1469" style="stroke:#181818;stroke-width:1;"/><text fill="#000000" font-family="sans-serif" font-size="13" lengthAdjust="spacing" textLength="208.3555" x="1063" y="649.5438">&#1053;&#1072;&#1076;&#1089;&#1080;&#1083;&#1072;&#1085;&#1085;&#1103; &#1089;&#1087;&#1086;&#1074;&#1110;&#1097;&#1077;&#1085;&#1100; (SMTP)</text></g><!--SRC=[VLFTJXDH4BxVfvZqHdf151GllF02Vn8JIJ0ruSQRm-u26xPxcjs3I8n9AJzYGaG9gP54YJx1KcWeOE4Lpda5diHlpdRRJOicJNTtvfkPRsQ-KO4AVT97-bAdfc4szPMfwpywfSfQelogK86Rq4tzWFI1QUfKdy2TMW1UhlIPFk48qu2ngxjcpt6IvI2gYLXKQJKMjRd0KqiqENMlO4-MX2TNWsYH5aIO-0LFB5SYpvLnvCSqCLbmHDBpAseDL6FVLI9Q38jXhgpMPEH7QXYYP8sKf7cfbAoI5x0da97ZtA69Ckb3VMcQvW2y6sRTxEeBtT7dQ0oTjdGRvbs72rD97w7R3Z0DwpmdGA_wfWsWK_DHfoKI2Jq90p2XzmwHY5Mm85o515zvRa2UwRQfMznqB5SJFtO-C9j9iDbc7kp69DkcaPSUCjlO5v7oCIJ5eVSH-ilwMpqKTjD4qAOjcN7Uq1TCb2rvta9CSTasVyMFts85t0D-lO1zZEHutAmFuYnspfylm8jDFuybU4QUXUKVmA3ZVj8Y2pjqMo7LvwP1OzF2NKP8EPjNzZ5IHN_HBGp8hWFZJSqsThfN6aOTSlT8tHdn_4PnJEaMpq_EXKb-vWLd-Xx1x0DnYhFOOFKG7mBfQzjK6xoQU5wmgPlPB-q9DVdMHZBrHe6OTGBHQvmNVtpAb4XZbPdNiooylcRB9JjCAw07h0ApnJ5G9M88h9XpnspTjd5z3EyP60zWTifFfmlBz8GIyo91RENLopmaBOIyYSPcPQ8MOvy1Tsbc3SzoBr56R0h4lbbQNV3UuN_ADSIjwexZXdB50x__mspMP-zO-28SFgyZx7-7LS3jymqFgtH6167MMKRheQNLkgb_Dtje2hjpUeSxFlvuS5_vYxNsbUuCDC_sdZATNA5iG_l5pq5vUaJw1-PtoZrPFLXT_NFZvRy0]--></g></svg>